<svg width="42" height="40" viewBox="0 0 42 40" fill="none" xmlns="http://www.w3.org/2000/svg">
<path d="M18.2558 6.9364L2.08308 11.0587C1.7091 11.154 1.39018 11.3866 1.19635 11.7053C1.00251 12.024 0.949589 12.4028 1.0492 12.7585L8.15094 37.9722C8.25184 38.3279 8.49715 38.6309 8.83296 38.8147C9.16877 38.9985 9.56759 39.048 9.94176 38.9523L19.2036 36.5942M19.6027 2.02709C19.7037 1.67204 19.9485 1.36951 20.2836 1.18579C20.6187 1.00208 21.0167 0.952161 21.3905 1.04698L39.9141 5.7632C40.2886 5.85791 40.6083 6.09019 40.8027 6.40895C40.9972 6.72772 41.0505 7.10687 40.951 7.46303L33.8431 32.6767C33.7422 33.0324 33.4969 33.3354 33.1611 33.5192C32.8253 33.703 32.4265 33.7525 32.0523 33.6568L13.5287 28.9406C13.1547 28.8452 12.8358 28.6127 12.642 28.294C12.4481 27.9753 12.3952 27.5965 12.4948 27.2407L19.6027 2.02709Z" stroke="white" stroke-width="2" stroke-linecap="round" stroke-linejoin="round"/>
</svg>
