<svg width="67" height="67" viewBox="0 0 67 67" fill="none" xmlns="http://www.w3.org/2000/svg">
<g clip-path="url(#clip0_111_133)">
<path d="M27.5627 52.296C27.28 52.6981 26.8656 52.9886 26.3913 53.1173C25.917 53.246 25.4126 53.2047 24.9655 53.0007C24.5184 52.7966 24.1568 52.4427 23.9432 52C23.7296 51.5574 23.6775 51.054 23.796 50.5771L26.6419 39.0096C26.8444 38.1872 26.7943 37.323 26.4981 36.5295C26.2019 35.7361 25.6735 35.0504 24.9817 34.5619L15.252 27.6888C14.8499 27.4061 14.5594 26.9917 14.4307 26.5174C14.302 26.0431 14.3433 25.5387 14.5473 25.0916C14.7514 24.6445 15.1053 24.2829 15.548 24.0693C15.9906 23.8557 16.494 23.8036 16.9709 23.9221L28.5384 26.768C29.3608 26.9705 30.225 26.9204 31.0184 26.6242C31.8119 26.328 32.4976 25.7996 32.9861 25.1078L39.8592 15.3781C40.1419 14.976 40.5562 14.6855 41.0306 14.5568C41.5049 14.4281 42.0093 14.4694 42.4564 14.6734C42.9035 14.8775 43.2651 15.2314 43.4787 15.6741C43.6923 16.1167 43.7444 16.6201 43.6259 17.097L40.78 28.6645C40.5775 29.4869 40.6276 30.3511 40.9238 31.1446C41.22 31.938 41.7484 32.6237 42.4402 33.1122L52.1699 39.9853C52.5719 40.268 52.8625 40.6824 52.9912 41.1567C53.1199 41.631 53.0786 42.1354 52.8746 42.5825C52.6705 43.0296 52.3166 43.3912 51.8739 43.6048C51.4313 43.8184 50.9279 43.8705 50.451 43.752L38.8835 40.9061C38.0611 40.7036 37.1969 40.7537 36.4034 41.0499C35.61 41.3461 34.9243 41.8745 34.4358 42.5663L27.5627 52.296Z" stroke="#EF4F93" stroke-width="3" stroke-linecap="round" stroke-linejoin="round"/>
<path d="M9.41236 45.6475L12.9097 37.9838" stroke="#EF4F93" stroke-width="3" stroke-linecap="round" stroke-linejoin="round"/>
<path d="M7.32882 40.0671L14.9924 43.5645" stroke="#EF4F93" stroke-width="3" stroke-linecap="round" stroke-linejoin="round"/>
<path d="M57.5535 21.3187C55.4372 20.3529 52.9388 21.2856 51.973 23.4018C51.0072 25.5181 51.9399 28.0165 54.0561 28.9823C56.1724 29.9481 58.6708 29.0154 59.6366 26.8991C60.6024 24.7829 59.6697 22.2844 57.5535 21.3187Z" stroke="#EF4F93" stroke-width="3" stroke-linecap="round" stroke-linejoin="round"/>
</g>
<defs>
<clipPath id="clip0_111_133">
<rect width="50.5435" height="50.5435" fill="white" transform="translate(45.9817 66.9658) rotate(-155.47)"/>
</clipPath>
</defs>
</svg>
