<svg width="29" height="30" viewBox="0 0 29 30" fill="none" xmlns="http://www.w3.org/2000/svg">
<g opacity="0.75" clip-path="url(#clip0_111_148)">
<path d="M6.38259 11.3545C6.45861 11.0094 6.6685 10.7086 6.96616 10.5182C7.94597 9.89207 8.95805 9.59573 9.88751 9.665C10.8715 9.73833 11.7141 10.2211 12.2051 10.9879C13.0653 12.3338 12.7364 14.4688 10.433 15.9424C9.53759 16.5161 9.38351 17.0759 9.47205 17.2117C9.55852 17.3492 10.1324 17.4441 11.0286 16.8714C12.0084 16.2453 13.0205 15.949 13.9499 16.0183C14.934 16.0916 15.7786 16.5727 16.2675 17.3412C17.1286 18.6881 16.7988 20.8221 14.4983 22.295C13.8456 22.7131 13.6279 23.0915 13.5581 23.2792C13.5036 23.4307 13.5119 23.5283 13.5361 23.567C13.6239 23.7018 14.1935 23.8001 15.0918 23.2257C15.3898 23.0352 15.7513 22.9708 16.0968 23.0468C16.4423 23.1227 16.7434 23.3328 16.934 23.6308C17.1245 23.9289 17.1889 24.2904 17.113 24.6358C17.037 24.9813 16.8269 25.2824 16.5289 25.473C14.2284 26.946 12.1508 26.352 11.2889 25.0041C10.427 23.6561 10.7576 21.5232 13.061 20.0496C13.7145 19.6326 13.9293 19.2549 13.9992 19.0671C14.0555 18.9158 14.0472 18.8182 14.0219 18.7803C13.9355 18.6428 13.3637 18.5463 12.4654 19.1206C10.1641 20.5925 8.08732 19.9996 7.22543 18.6517C6.36353 17.3037 6.69333 15.1698 8.99634 13.6999C9.64898 13.2818 9.86588 12.9024 9.9357 12.7147C9.99102 12.5642 9.98271 12.4666 9.95849 12.4279C9.86994 12.2921 9.29816 12.1955 8.40196 12.7681C8.1795 12.9103 7.91985 12.9832 7.6559 12.9777C7.39195 12.9721 7.1356 12.8883 6.91932 12.7369C6.70304 12.5855 6.53658 12.3733 6.44103 12.1272C6.34548 11.8811 6.32514 11.6122 6.38259 11.3545Z" fill="#EFB63B"/>
<path d="M23.2722 16.2242C24.4205 15.302 24.6038 13.6236 23.6817 12.4753C22.7595 11.327 21.081 11.1437 19.9327 12.0658C18.7844 12.988 18.6011 14.6665 19.5233 15.8148C20.4454 16.9631 22.1239 17.1464 23.2722 16.2242Z" fill="#F8E5BA"/>
<path d="M21.9332 24.1397C22.7944 23.448 22.9319 22.1892 22.2402 21.3279C21.5486 20.4667 20.2898 20.3292 19.4285 21.0209C18.5673 21.7125 18.4298 22.9713 19.1215 23.8326C19.8131 24.6938 21.0719 24.8313 21.9332 24.1397Z" fill="#CBE7B1"/>
<path d="M11.4898 6.8755C12.351 6.18386 12.4885 4.92502 11.7969 4.06379C11.1053 3.20256 9.84641 3.06507 8.98518 3.7567C8.12395 4.44833 7.98646 5.70718 8.67809 6.56841C9.36972 7.42964 10.6286 7.56713 11.4898 6.8755Z" fill="#CBE7B1"/>
</g>
<defs>
<clipPath id="clip0_111_148">
<rect width="17.5234" height="24" fill="white" transform="translate(0 10.9724) rotate(-38.767)"/>
</clipPath>
</defs>
</svg>
