<svg width="32" height="32" viewBox="0 0 32 32" fill="none" xmlns="http://www.w3.org/2000/svg">
<path d="M16 3C8.82 3 3 8.82 3 16C3 23.18 8.82 29 16 29C23.18 29 29 23.18 29 16C29 8.82 23.18 3 16 3ZM17.7733 11.1773C17.9019 11.1499 18.0345 11.1482 18.1637 11.1721C18.293 11.196 18.4162 11.2451 18.5264 11.3167C18.6366 11.3883 18.7316 11.4809 18.806 11.5892C18.8804 11.6975 18.9327 11.8194 18.96 11.948L19.0973 12.6C19.127 12.7293 19.1306 12.8632 19.108 12.9939C19.0854 13.1246 19.037 13.2496 18.9657 13.3614C18.8943 13.4732 18.8014 13.5697 18.6924 13.6453C18.5834 13.7209 18.4604 13.7741 18.3307 13.8017C18.2009 13.8292 18.067 13.8308 17.9366 13.8061C17.8063 13.7814 17.6821 13.731 17.5715 13.6579C17.4608 13.5848 17.3657 13.4904 17.2919 13.3802C17.218 13.27 17.1669 13.1462 17.1413 13.016L17.0027 12.3627C16.9478 12.1033 16.9981 11.8327 17.1426 11.6104C17.2871 11.3882 17.514 11.2324 17.7733 11.1773ZM11.252 12.564C11.3805 12.5366 11.5132 12.5348 11.6424 12.5587C11.7716 12.5827 11.8949 12.6318 12.0051 12.7034C12.1153 12.775 12.2103 12.8676 12.2847 12.9759C12.3591 13.0842 12.4114 13.2061 12.4387 13.3347L12.576 13.9867C12.6066 14.1164 12.611 14.2509 12.5889 14.3823C12.5668 14.5137 12.5187 14.6394 12.4474 14.7519C12.376 14.8645 12.2829 14.9616 12.1735 15.0377C12.064 15.1137 11.9405 15.1671 11.8102 15.1948C11.6798 15.2224 11.5452 15.2237 11.4144 15.1986C11.2835 15.1735 11.159 15.1225 11.0481 15.0486C10.9372 14.9746 10.8422 14.8793 10.7687 14.7682C10.6952 14.657 10.6446 14.5323 10.62 14.4013L10.4813 13.7493C10.4539 13.6208 10.4522 13.4881 10.4761 13.3589C10.5 13.2297 10.5491 13.1065 10.6207 12.9963C10.6923 12.8861 10.7849 12.791 10.8932 12.7166C11.0015 12.6422 11.1234 12.5899 11.252 12.5627M22.3547 17.3027C22.539 17.4932 22.6401 17.749 22.6358 18.014C22.6316 18.279 22.5223 18.5315 22.332 18.716C22.1034 18.9381 21.8649 19.1499 21.6173 19.3507L21.908 19.944C22.2451 20.6564 22.2884 21.4729 22.0284 22.217C21.7683 22.961 21.226 23.5729 20.5185 23.9202C19.8109 24.2676 18.9952 24.3225 18.2475 24.0733C17.4997 23.824 16.8802 23.2904 16.5227 22.588L16.1587 21.8453C14.4807 22.1722 12.7519 22.1326 11.0907 21.7293C10.8368 21.6619 10.6197 21.4972 10.4862 21.271C10.3527 21.0447 10.3136 20.775 10.3774 20.5202C10.4411 20.2653 10.6026 20.0458 10.8269 19.9091C11.0512 19.7723 11.3203 19.7293 11.576 19.7893C13.0827 20.1667 14.8147 20.172 16.5707 19.7013C18.3267 19.2307 19.824 18.3613 20.9413 17.28C21.1318 17.0957 21.3877 16.9946 21.6527 16.9988C21.9177 17.0031 22.1702 17.1124 22.3547 17.3027Z" fill="#EF9F4F"/>
<path d="M18.123 21.3096C18.7639 21.0785 19.371 20.8029 19.9444 20.4829L20.1137 20.8269C20.2197 21.0635 20.2298 21.332 20.1416 21.5758C20.0535 21.8196 19.8742 22.0196 19.6414 22.1338C19.4087 22.2479 19.1407 22.2672 18.894 22.1875C18.6473 22.1079 18.4412 21.9356 18.319 21.7069L18.123 21.3096Z" fill="#EF9F4F"/>
</svg>
