<svg width="32" height="32" viewBox="0 0 32 32" fill="none" xmlns="http://www.w3.org/2000/svg">
<path d="M23.2609 7.59788C21.2443 7.29125 19.1829 7.49881 17.2679 8.2013L16.8725 8.35216C14.2809 9.40241 11.454 9.73405 8.68976 9.31214C7.50349 9.12929 6.26695 8.83443 5.18354 8.29387C4.78876 8.09823 4.48446 7.75809 4.3338 7.34405C4.18314 6.93001 4.19769 6.47386 4.37442 6.07026C4.55115 5.66666 4.8765 5.3466 5.28294 5.17651C5.68938 5.00641 6.14571 4.99935 6.55723 5.15677L6.70808 5.22306C7.4875 5.58877 8.36519 5.79334 9.21089 5.92362C10.7469 6.15905 12.8485 6.17504 15.2039 5.31906L15.5993 5.1682C18.1909 4.11795 21.0178 3.7863 23.7821 4.20822C24.9683 4.39107 26.2037 4.68707 27.286 5.22534C27.6903 5.43159 27.9974 5.78845 28.141 6.21901C28.2847 6.64956 28.2534 7.11932 28.054 7.52702C27.6323 8.37044 26.7717 8.56358 25.7626 8.2973L23.2609 7.59788ZM23.2609 14.4549C21.2443 14.1483 19.1829 14.3558 17.2679 15.0583L16.8725 15.2092C14.2809 16.2594 11.454 16.5911 8.68976 16.1692C7.50349 15.9863 6.26695 15.6915 5.18354 15.1509C4.78876 14.9553 4.48446 14.6151 4.3338 14.2011C4.18314 13.7871 4.19769 13.3309 4.37442 12.9273C4.55115 12.5237 4.8765 12.2036 5.28294 12.0335C5.68938 11.8635 6.14571 11.8564 6.55723 12.0138L6.70808 12.0801C7.4875 12.4458 8.36519 12.6504 9.21089 12.7807C10.7469 13.0161 12.8485 13.0321 15.2039 12.1761L15.5993 12.0252C18.1909 10.975 21.0178 10.6433 23.7821 11.0653C24.9683 11.2481 26.2037 11.5441 27.286 12.0824C27.6903 12.2886 27.9974 12.6455 28.141 13.076C28.2847 13.5066 28.2534 13.9764 28.054 14.3841C27.6323 15.2286 26.7717 15.4206 25.7626 15.1543L23.2609 14.4549ZM16.4565 22.2262L16.8725 22.0662C18.8951 21.2437 21.1024 20.9831 23.2609 21.312L25.7637 22.0114C26.7717 22.2777 27.6323 22.0857 28.0551 21.2411C28.2541 20.8334 28.285 20.3638 28.1412 19.9335C27.9973 19.5032 27.6902 19.1466 27.286 18.9406C26.2037 18.4012 24.9683 18.1063 23.7821 17.9234C21.1669 17.5247 18.4932 17.8001 16.0142 18.7234L15.5993 18.8834C13.0828 19.8891 10.8314 19.8868 9.21089 19.6377C8.48633 19.5257 7.73663 19.36 7.0475 19.0846L6.70808 18.936C6.30072 18.7338 5.82973 18.7018 5.39872 18.8469C4.96772 18.992 4.61201 19.3023 4.40984 19.7097C4.20767 20.1171 4.17561 20.5881 4.32071 21.0191C4.4658 21.4501 4.77617 21.8058 5.18354 22.008C6.2658 22.5485 7.50349 22.8434 8.68976 23.0251C10.692 23.3336 13.4245 23.3451 16.4565 22.2251V22.2262Z" fill="#84D1D8"/>
</svg>
