<svg width="200" height="200" viewBox="0 0 200 200" fill="none" xmlns="http://www.w3.org/2000/svg">
<rect width="200" height="200" rx="8" fill="#F5EEE1"/>
<path d="M150.059 150C149.973 149.83 149.99 149.644 150.076 149.446M150.076 149.446C150.42 148.646 151.873 147.629 152.215 146.497C152.862 144.357 153.509 143.366 153.75 142.29C154.008 141.14 153.705 139.593 153.583 138.278C153.427 136.588 153.368 134.384 153.296 132.214C153.239 130.511 153.414 129.368 154.37 125.649C154.745 124.188 155.806 123.442 156.431 121.963C157.224 120.088 157.916 119.379 158.468 118.448C159.169 117.264 159.069 115.607 159.045 113.983C159.027 112.726 158.687 111.688 158.281 110.755C157.793 109.635 156.39 108.729 156.075 107.459C155.837 106.499 155.668 105.43 155.5 104.424C155.295 103.2 155.571 101.37 155.882 100.124C156.368 98.1773 155.956 95.3469 155.072 93.8906C154.275 92.5751 153.561 91.6201 153.058 90.6396C152.416 89.3883 152.17 87.704 152.05 86.3644C151.936 85.0771 152.265 83.9284 152.337 82.9228C152.372 82.4422 152.457 81.8714 152.41 81.2278C152.314 79.922 149.364 77.349 146.933 75.3293C142.872 71.9561 141.393 69.7863 140.722 68.4468C140.008 67.0201 138.713 66.2028 137.299 65.1012C135.699 63.8551 133.594 63.3331 131.836 62.7576C130.741 62.3988 129.086 62.1376 127.764 61.6116C125.918 60.8773 123.823 58.9899 121.084 57.1243C119.76 56.2226 118.924 55.1168 116.894 53.8497C115.106 52.7336 112.036 53.1975 107.126 52.9409C103.797 52.7669 98.8962 51.2179 96.0467 50.5843C93.1972 49.9508 92.5805 49.9508 92.0494 50.0454C91.0657 50.2206 88.0429 52.0851 83.9479 54.4739C81.7305 55.7674 80.2137 55.4924 78.7275 55.5174C77.0488 55.5458 75.2319 55.7303 72.6231 56.1367C70.8948 56.4059 69.816 57.1637 68.14 57.927C66.654 58.6038 65.4091 59.9273 64.3756 61.0325C63.1374 62.3566 61.764 63.9466 60.9267 64.7113C59.5088 66.0065 58.507 66.4321 57.6201 66.8873C56.5248 67.4493 55.2011 68.1522 54.3143 68.7263C53.3342 69.3608 52.6139 70.6836 51.6077 72.1629C50.9166 73.1791 49.9807 74.2643 48.9242 76.0797C48.0785 77.533 47.6781 79.092 47.2217 80.0488C46.6287 81.2921 45.9533 82.8189 45.2583 84.6085C44.7262 85.9788 43.5586 87.0245 42.863 87.7663C41.942 88.7483 40.8737 89.2248 40.5862 89.5581C40.4458 89.7209 40.4885 89.986 40.6308 90.2024C41.7588 91.9181 46.1689 94.1343 49.2469 95.7203C50.2044 96.2137 53.2075 97.4798 57.2062 99.4852C59.9506 100.862 61.3242 101.74 63.5197 103.003C66.8044 104.894 69.471 105.948 70.1645 106.186C72.0061 106.818 74.7345 108.761 76.7475 110.694C80.4036 114.204 81.4469 115.357 82.6931 116.124C84.3596 117.148 85.138 118.035 86.4057 119.18C87.8819 120.512 89.3983 120.853 90.671 121.428C92.2032 122.12 93.4257 122.909 96.9608 123.935C99.3066 124.616 100.515 124.439 102.836 124.773C104.545 125.019 105.643 125.919 106.507 126.921C107.743 128.355 110.283 129.643 111.753 130.101L111.88 130.141C113.24 130.565 115.264 131.196 116.591 131.915C118.239 132.808 119.824 133.848 121.023 134.805C122.353 135.867 123.515 136.383 124.616 137.266C126.063 138.426 129.48 140.244 131.66 141.376C133.151 142.15 135.436 143.403 136.81 144.243C137.349 144.571 137.937 144.888 139.531 145.601C143.076 147.186 146.269 148.231 147.537 148.876C148.685 149.248 149.516 149.391 150.076 149.446ZM150.076 149.446C150.348 149.472 150.556 149.477 150.705 149.478C150.922 149.431 151.112 149.289 151.307 149.143M48.537 78.6187C49.628 79.8486 50.7189 81.0784 53.9845 84.0771C57.2502 87.0758 62.6574 91.8061 65.609 94.4321C68.5606 97.0581 68.8926 97.4365 70.1309 98.3883C73.5036 100.854 76.0348 102.603 76.6327 102.96C76.8986 103.129 77.0883 103.27 77.2838 103.417M61.9036 62.8513C61.9036 62.7567 63.4214 65.5934 66.1955 70.8404C67.4457 73.2052 68.4004 74.9522 69.15 76.1849C69.8995 77.4177 70.4213 78.0799 72.2316 81.0463C74.042 84.0128 77.125 89.2634 78.9268 92.4412C81.7849 98.0602 82.3124 99.3531 82.6229 99.9244C82.791 100.259 82.4274 100.057 82.6229 100.926M90.0768 51.3839C90.0293 51.4312 89.9819 51.4785 89.7914 52.8037C89.601 54.1289 89.269 56.7305 88.9556 63.2977C88.6423 69.8649 88.3577 80.3188 88.2348 85.8696C88.0908 92.3751 88.3031 93.5205 88.4713 95.0256C88.5431 96.1995 88.6394 96.9162 88.6631 97.4638C88.6869 97.7748 88.7343 98.1533 88.6394 98.3998M114.654 54.2508C114.749 54.2508 113.849 56.5213 111.558 61.4988C110.294 64.2434 108.508 67.2805 107.059 70.2362C105.61 73.1919 104.472 75.9354 103.672 77.7745C101.847 81.9708 100.387 85.287 99.4438 87.5475C98.5099 89.7864 98.0294 92.2792 97.4085 94.1856C97.2159 94.9023 97.0262 95.8484 96.8098 96.6195C96.5935 97.3907 96.7677 96.7807 96.8108 97.2222M131.615 63.7112C130.856 64.4681 130.097 65.2249 128.71 66.7264C127.323 68.2279 125.331 70.4511 123 73.3939C120.67 76.3367 118.061 79.9317 116.456 82.0675C114.39 84.8171 113.46 85.876 112.293 87.3976C110.296 90.0009 108.524 91.7545 107.572 93.0847C105.671 95.5501 104.355 97.3935 104.092 97.9418C103.925 98.2063 104.337 97.2648 104.092 97.2218M145.414 74.6053C144.465 75.1729 143.597 75.7965 142.761 76.4637C141.836 77.2023 139.728 78.7493 134.582 82.9313C130.976 85.8624 125.262 90.3298 121.192 93.7564C117.121 97.183 114.845 99.4062 113.553 100.646C112.025 102.075 111.543 102.412 111.065 102.722C110.824 102.889 110.587 103.079 110.487 103.274M113.849 107.408C117.487 105.355 116.854 105.808 121.462 103.44C125.619 101.304 133.375 97.0982 137.667 94.8592C141.959 92.6202 142.528 92.431 143.58 91.9551C144.632 91.4792 146.15 90.7224 147.762 90.025C149.374 89.3277 151.034 88.7127 152.313 88.0792M156.481 97.8267C156.529 97.8267 156.576 97.8267 153.352 98.9147C150.127 100.003 143.629 102.179 137.103 104.553C130.578 106.927 124.222 109.434 120.449 110.797C116.677 112.159 115.681 112.301 115.002 112.398C114.323 112.495 114.914 112.349 114.716 112.398M114.655 119.758C114.56 119.758 115.839 119.427 118.99 118.901C120.798 118.6 123.089 118.66 127.701 118.163C132.313 117.665 139.19 116.719 143.065 116.232C149.105 115.472 151.445 116.364 152.882 116.485C153.268 116.508 153.647 116.556 154.791 116.58C155.935 116.604 157.833 116.604 159.5 116.604M113.361 126.925C114.355 126.923 117.283 127.353 121.799 128.301C125.695 129.12 132.86 130.574 137.024 131.377C143.94 132.71 146.175 132.945 147.562 133.159C150.154 133.756 151.585 134.043 153.146 134.496M73.2592 107.717C73.4489 107.148 74.6879 105.621 77.1709 103.928C78.6563 102.916 81.6331 101.536 83.7165 100.52C88.4336 98.2187 91.3006 97.9725 93.4243 97.8027C96.7067 97.5401 101.33 97.7776 103.53 97.9209C105.638 98.0584 107.548 99.965 110.618 102.878C112.64 104.796 113.025 106.807 113.405 107.969C114.229 110.484 114.702 112.492 114.774 113.679C114.908 115.903 114.371 119.355 113.725 122.578C113.362 125.101 112.931 127.111 112.692 127.946C112.595 128.308 112.547 128.544 112.499 128.931M91.5129 121.765C91.6077 121.765 93.6962 120.156 98.2095 116.821C100.683 115.093 103.529 113.296 105.09 112.228C106.651 111.16 106.841 110.876 107.324 110.727" stroke="#D8C08D" stroke-width="2.5" stroke-linecap="round"/>
</svg>
