<svg width="32" height="32" viewBox="0 0 32 32" fill="none" xmlns="http://www.w3.org/2000/svg">
<path d="M6.07662 4.03027C5.83181 4.03027 5.59702 4.13124 5.42391 4.31096C5.2508 4.49069 5.15355 4.73444 5.15355 4.98861C5.15355 5.24277 5.2508 5.48653 5.42391 5.66625C5.59702 5.84597 5.83181 5.94694 6.07662 5.94694H7.51385L4.29139 14.709C4.25115 14.8182 4.2305 14.9342 4.23047 15.0511C4.23047 17.5207 6.00555 19.3636 8.38431 19.3636C10.7631 19.3636 12.5382 17.5207 12.5382 15.0511C12.5381 14.9342 12.5175 14.8182 12.4772 14.709L9.25662 5.94694H15.3074V21.2803H9.76893C9.40527 21.2803 9.04517 21.3546 8.70919 21.4991C8.37321 21.6436 8.06794 21.8554 7.81079 22.1223C7.55364 22.3893 7.34966 22.7062 7.21049 23.0551C7.07133 23.4039 6.9997 23.7777 6.9997 24.1553C6.9997 24.5328 7.07133 24.9067 7.21049 25.2555C7.34966 25.6043 7.55364 25.9212 7.81079 26.1882C8.06794 26.4552 8.37321 26.6669 8.70919 26.8114C9.04517 26.9559 9.40527 27.0303 9.76893 27.0303H22.692C23.4265 27.0303 24.1308 26.7274 24.6501 26.1882C25.1695 25.649 25.4612 24.9178 25.4612 24.1553C25.4612 23.3928 25.1695 22.6615 24.6501 22.1223C24.1308 21.5832 23.4265 21.2803 22.692 21.2803H17.1535V5.94694H23.0926L19.98 14.7195C19.9422 14.8257 19.9228 14.9379 19.9228 15.0511C19.9228 17.5207 21.6979 19.3636 24.0766 19.3636C26.4554 19.3636 28.2305 17.5207 28.2305 15.0511C28.2304 14.9379 28.211 14.8257 28.1732 14.7195L25.0606 5.94694H26.3843C26.6291 5.94694 26.8639 5.84597 27.037 5.66625C27.2101 5.48653 27.3074 5.24277 27.3074 4.98861C27.3074 4.73444 27.2101 4.49069 27.037 4.31096C26.8639 4.13124 26.6291 4.03027 26.3843 4.03027H6.07662ZM8.38431 8.95323L10.2748 14.0928H6.49385L8.38431 8.95323ZM22.1695 14.0928L24.0766 8.7194L25.9837 14.0928H22.1695Z" fill="#B3B3B3"/>
</svg>
