<svg width="25" height="25" viewBox="0 0 25 25" fill="none" xmlns="http://www.w3.org/2000/svg">
<g opacity="0.6">
<path d="M11.8316 2.35595C11.8765 2.26506 11.946 2.18855 12.0322 2.13506C12.1184 2.08157 12.2178 2.05322 12.3192 2.05322C12.4206 2.05322 12.52 2.08157 12.6061 2.13506C12.6923 2.18855 12.7618 2.26506 12.8068 2.35595L15.1781 7.15921C15.3344 7.47536 15.565 7.74887 15.8501 7.95628C16.1353 8.16369 16.4666 8.2988 16.8155 8.35002L22.1187 9.12609C22.2192 9.14065 22.3136 9.18304 22.3912 9.24846C22.4689 9.31388 22.5267 9.39972 22.5581 9.49628C22.5895 9.59283 22.5932 9.69625 22.5689 9.79483C22.5446 9.89341 22.4932 9.98322 22.4205 10.0541L18.5853 13.7887C18.3324 14.0352 18.1431 14.3394 18.0339 14.6753C17.9246 15.0111 17.8986 15.3685 17.9581 15.7166L18.8635 20.9931C18.8812 21.0935 18.8704 21.1969 18.8322 21.2915C18.794 21.3861 18.73 21.468 18.6474 21.5279C18.5649 21.5879 18.4672 21.6234 18.3655 21.6305C18.2637 21.6376 18.162 21.6159 18.072 21.568L13.3314 19.0755C13.019 18.9115 12.6715 18.8258 12.3187 18.8258C11.9659 18.8258 11.6183 18.9115 11.306 19.0755L6.56635 21.568C6.47635 21.6156 6.37479 21.637 6.27322 21.6298C6.17164 21.6226 6.07414 21.587 5.99178 21.5271C5.90943 21.4672 5.84554 21.3854 5.80737 21.291C5.76921 21.1966 5.7583 21.0934 5.7759 20.9931L6.6803 15.7176C6.74004 15.3693 6.71416 15.0118 6.60489 14.6757C6.49561 14.3397 6.30623 14.0352 6.05307 13.7887L2.21785 10.0551C2.14455 9.98433 2.09261 9.89436 2.06794 9.79548C2.04327 9.6966 2.04687 9.59278 2.07832 9.49585C2.10978 9.39891 2.16783 9.31276 2.24586 9.24721C2.32388 9.18165 2.41876 9.13933 2.51966 9.12507L7.82183 8.35002C8.17112 8.2992 8.50284 8.16427 8.78842 7.95683C9.074 7.74939 9.3049 7.47567 9.46124 7.15921L11.8316 2.35595Z" fill="#CCD3F0" stroke="#CCD3F0" stroke-width="2.05311" stroke-linecap="round" stroke-linejoin="round"/>
</g>
</svg>
