<svg width="32" height="32" viewBox="0 0 32 32" fill="none" xmlns="http://www.w3.org/2000/svg">
<path d="M18.2531 4.61333C17.7998 4.2 17.2798 4 16.6665 4C16.0665 4 15.5465 4.2 15.1065 4.61333L7.38647 12.1067C6.97314 12.5067 6.74647 13 6.66647 13.6C6.66647 14.1867 6.77314 14.72 7.10647 15.2L15.2665 26.44C14.9331 27.1467 14.3331 27.4933 13.4531 27.4933C12.3865 27.4933 11.7198 27 11.4665 26C11.1998 25.12 10.6665 24.36 9.83981 23.7333C9.01314 23.12 8.13314 22.8 7.21314 22.8C5.81314 22.8 4.66647 23.3333 3.7998 24.4L5.61314 25.8933C5.9998 25.3733 6.5598 25.12 7.21314 25.12C8.2798 25.12 8.94647 25.6133 9.19981 26.6C9.45314 27.4933 9.9998 28.2533 10.8265 28.8933C11.6531 29.5333 12.5331 29.8667 13.4531 29.8667C15.1065 29.8667 16.3731 29.1067 17.2531 27.6L26.2398 15.1867C26.5731 14.72 26.7065 14.1867 26.6665 13.6C26.5998 13 26.3598 12.5067 25.9598 12.1067L18.2531 4.61333Z" fill="#4FD7EF"/>
</svg>
