<svg width="32" height="32" viewBox="0 0 32 32" fill="none" xmlns="http://www.w3.org/2000/svg">
<path d="M15.9998 2.65576C13.5861 2.65621 11.2178 3.31186 9.14747 4.55278C7.07716 5.7937 5.38254 7.57334 4.24436 9.70187C3.10619 11.8304 2.56717 14.228 2.68479 16.6388C2.80241 19.0497 3.57226 21.3834 4.91222 23.391C6.25219 25.3986 8.112 27.0049 10.2933 28.0384C12.4745 29.0719 14.8955 29.4939 17.2978 29.2593C19.7001 29.0248 21.9936 28.1426 23.9339 26.7067C25.8741 25.2709 27.3881 23.3353 28.3145 21.1064C28.7692 20.0131 27.6798 18.9144 26.5838 19.3598C24.7054 20.1207 22.6197 20.1992 20.6894 19.5817C18.7591 18.9642 17.1062 17.6897 16.0182 15.9798C14.9301 14.2699 14.4757 12.2328 14.734 10.2226C14.9923 8.21247 15.9469 6.35638 17.4318 4.9771L17.5345 4.87043C18.2692 4.03043 17.6852 2.66643 16.5238 2.66643H16.1692L16.0785 2.65843L15.9998 2.65576Z" fill="#181608"/>
</svg>
