<svg width="32" height="32" viewBox="0 0 32 32" fill="none" xmlns="http://www.w3.org/2000/svg">
<path d="M20.1337 18.6745C19.8531 19.7279 19.4527 20.7456 18.9404 21.7078C19.4964 21.3822 20.1138 21.1751 20.7537 21.0998C23.3631 20.8198 25.7537 23.1572 25.7537 23.1572C25.7537 23.1572 23.9137 25.9465 21.3004 26.2225C19.6716 26.2592 18.0868 25.6921 16.8511 24.6305C15.504 26.1093 13.8636 27.2912 12.0344 28.1008C10.2052 28.9105 8.22741 29.3302 6.22705 29.3332C5.98942 29.3332 5.76152 29.2388 5.59349 29.0707C5.42545 28.9027 5.33105 28.6748 5.33105 28.4372C5.33105 28.1995 5.42545 27.9716 5.59349 27.8036C5.76152 27.6356 5.98942 27.5412 6.22705 27.5412C9.05581 27.5414 11.8018 26.5868 14.0204 24.8318C13.2345 24.908 12.4418 24.797 11.7071 24.5078C9.28572 23.4945 8.32572 20.2918 8.32572 20.2918C8.32572 20.2918 11.2791 18.7358 13.6964 19.7532C14.8563 20.3147 15.799 21.2424 16.3791 22.3932C17.2464 21.2268 17.9042 19.9184 18.3231 18.5265C16.9089 19.0095 15.3691 18.9736 13.9791 18.4252C11.6151 17.2892 10.8111 14.0465 10.8111 14.0465C10.8111 14.0465 13.8444 12.6385 16.2097 13.7758C17.3305 14.3901 18.2201 15.3536 18.7431 16.5198C18.8021 16.0732 18.8359 15.6236 18.8444 15.1732C17.1173 13.8425 15.9258 11.9355 15.4871 9.79984C15.0244 6.10917 18.2804 2.6665 18.2804 2.6665C18.2804 2.6665 22.2831 5.20117 22.7417 8.88517C22.8351 11.1734 22.0839 13.4161 20.6311 15.1865C20.6287 15.6276 20.602 16.0683 20.5511 16.5065C21.0435 15.4861 21.8338 14.639 22.8177 14.0772C25.1511 12.8705 28.2231 14.1905 28.2231 14.1905C28.2231 14.1905 27.5137 17.4558 25.1804 18.6572C23.561 19.3037 21.7562 19.3099 20.1324 18.6745H20.1337Z" fill="#EF4F93"/>
</svg>
