<svg width="200" height="200" viewBox="0 0 200 200" fill="none" xmlns="http://www.w3.org/2000/svg">
<rect width="200" height="200" rx="8" fill="#E9E1F5"/>
<path d="M98.7811 50.0226C98.7197 50.3196 99.4392 51.8732 100.463 54.9541C103.044 62.725 104.14 63.999 105.285 67.0808C106.159 69.4319 106.975 70.4183 107.638 71.4705C107.996 72.0398 108.242 72.7009 108.75 74.1023C109.79 76.9698 111.551 81.1994 112.605 85.2182C113.264 87.7298 113.607 89.9715 113.907 92.9147C114.2 95.7899 113.791 98.0722 113.517 101.732C113.253 105.261 112.583 106.421 111.352 110.968C110.566 113.871 109.275 115.595 108.486 117.372C107.227 120.212 104.693 124.297 103.546 125.476C103.303 125.686 103.124 125.924 102.912 126.195C102.701 126.466 102.462 126.763 102.036 127.069M98.9618 50.0226C98.9618 49.9037 98.7232 50.199 97.407 52.2538C94.3904 56.9632 92.0951 60.9351 91.4334 62.3437C89.9974 65.4004 87.7559 69.3994 86.8519 71.6135C86.1723 73.278 85.2898 76.879 84.0242 80.8978C83.4795 82.6276 83.1763 85.2227 82.5435 90.0389C82.2089 92.5851 82.3283 95.3899 82.567 98.1054C83.0326 103.403 83.7747 106.304 83.9835 107.348C84.751 111.186 85.8828 112.722 87.2045 115.417C88.0468 117.136 89.553 119.494 90.5511 121.004C91.6649 122.69 93.2305 124.3 94.8875 126.073C96.1136 127.384 97.689 127.965 99.017 128C99.7971 127.969 100.585 127.85 101.307 127.67C101.67 127.609 103.129 125.875 103.497 125.875M73.29 54.3435C73.4093 54.8169 73.5323 57.0941 73.0812 58.896C72.7245 60.3208 72.2685 61.7187 71.4883 63.9247C68.8081 71.5037 69.4932 73.6554 69.3431 75.0407C69.1878 76.4744 69.1316 78.397 69.2817 79.7508C69.3124 80.082 69.3124 80.4384 69.3721 80.8596C69.4317 81.2809 69.5511 81.7561 70.2164 82.6058M73.6508 53.263C73.5911 53.2036 73.5315 53.1442 75.2012 55.7274C76.8708 58.3106 80.2717 63.5383 82.3219 66.5877C84.3722 69.6372 84.9688 70.35 85.5835 70.9045M59.5478 58.8433L58.1014 70.7243M59.7285 58.3033C62.7117 62.4616 64.5468 65.1384 65.2972 66.3346C66.3458 67.7684 67.8555 69.5146 69.301 71.0735M52.3161 64.4238C52.2564 65.8495 52.1967 67.2752 52.3748 71.3661C52.5529 75.4569 52.9706 82.1696 53.2454 85.8654C53.5561 90.0433 54.1204 92.4863 54.9313 96.1397C56.291 102.266 59.6601 105.816 60.7196 107.68C62.1765 110.244 64.4188 113.197 67.1597 115.269C68.0484 115.941 69.1087 116.909 71.1535 118.171C73.1984 119.433 76.1816 120.977 79.3293 122.308C85.5981 124.957 92.4989 125.846 94.4561 125.875C93.7184 126.181 89.3726 126.592 88.7072 126.832C87.4452 127.251 86.0495 127.796 84.425 128.453C82.6812 128.992 79.8775 129.773 73.3258 129.555C68.6205 129.398 61.2818 128.864 57.2129 128.658C53.1441 128.451 52.3684 128.57 50.2594 129.181C48.1504 129.791 44.7636 130.75 42.5239 131.731C39.0453 133.256 37.1212 134.202 36.9182 133.695C36.8324 133.481 37.0755 133.068 37.3133 132.704C38.2173 131.321 38.4641 128.377 45.4185 122.841C49.9294 119.251 53.1343 117.031 56.0278 116.167C61.1462 114.639 64.1873 113.748 64.0679 113.748M51.9536 64.064C53.9821 67.2718 55.3255 69.162 56.3443 70.324C58.412 72.6823 60.9772 75.7523 63.5672 77.791C66.0944 79.7803 68.9378 81.7594 70.33 82.8116C71.8513 83.9614 73.042 84.5209 74.247 85.1833C75.8764 86.0791 78.0971 87.1563 79.5815 88.5712C80.0931 89.2588 80.697 89.8637 81.3886 90.3128C81.7221 90.5243 82.0205 90.7026 82.5086 91.2462M89.9216 126.169C88.7283 126.702 85.709 128.743 84.2617 129.945C83.2023 130.825 83.1163 133.888 83.1398 136.273C83.1612 138.446 85.7596 139.425 87.1725 140.147C89.3606 141.265 90.6376 142.068 93.0765 143.206C94.6208 143.926 96.0001 145.424 97.4799 146.358C98.7775 147.177 99.258 148.905 99.8637 149.81C100.594 150.9 101.37 146.997 102.182 145.885C103.61 143.932 107.018 141.121 108.751 139.884C109.981 139.005 111.071 137.816 111.885 136.615C112.554 135.628 113.002 134.634 113.183 133.707C113.765 130.729 112.163 128.275 111.259 127.193C110.779 126.536 110.055 125.872 108.974 125.303C108.37 125.032 107.654 124.794 106.917 124.549M109.267 124.189C112.096 126.646 113.299 127.487 115.791 128.654C121.183 131.18 123.843 129.471 128.367 128.012C131.553 126.984 137.294 124.653 140.872 123.402C144.45 122.151 145.644 121.914 148.197 121.702C154.619 121.17 159.46 121.426 160.696 121.638C161.099 121.707 161.037 121.078 160.857 120.596C160.483 119.593 159.654 118.792 158.245 117.836C155.832 116.199 151.062 114.657 146.034 113.248C143.25 112.467 140.563 112.547 137.493 112.727C133.387 113.802 130.005 115.186 128.832 115.516C128.256 115.667 127.719 115.786 127.166 116.088M106.013 124.549C108.103 124.194 114.246 122.159 117.422 120.983C120.777 119.741 124.602 117.543 127.462 116.092C128.85 115.387 129.813 114.353 131.409 112.466C132.785 110.837 134.152 109.313 135.568 107.485C137.49 105.004 139.157 101.694 140.72 98.9672C141.704 97.2499 142.653 95.2751 143.045 93.5929C143.524 91.5312 144.581 89.2734 145.213 85.71C145.584 83.6256 145.727 81.8352 146.208 79.7362C147.294 74.9954 148.616 70.8075 148.652 67.5537C148.658 67 148.443 66.7103 147.307 66.8841C146.172 67.0578 144.024 67.7112 141.187 68.8795C138.35 70.0478 134.89 71.7112 131.287 73.7264C127.685 75.7417 124.045 78.0585 121.663 79.7272C116.327 84.4544 114.271 87.043 113.88 87.701C113.727 88.0619 113.668 88.4777 113.245 89.4462M105.684 67.1546C105.048 67.2303 107.207 64.3805 109.701 61.2069C114.267 55.3969 118.897 53.5688 120.084 53.0225C121.284 52.4703 119.573 55.7146 119.874 57.576C120.191 59.5471 121.313 64.8018 122.223 68.3472C122.824 70.6541 123.79 73.7737 124.183 75.3695C124.215 75.7017 124.155 75.9987 124.455 76.1247M122.872 70.5446C122.872 70.5446 125.462 64.8561 128.412 62.8777C132.508 60.1309 137.525 59.3854 138.492 59.2045C138.774 59.1517 137.536 59.7419 136.995 60.2198C135.703 61.3602 135.788 64.2872 135.635 66.0694C135.605 66.4006 135.545 66.757 135.515 67.4456C135.484 68.1342 135.484 69.144 135.665 70.5446M145.247 90.7065C145.485 90.6489 146.566 90.0476 149.768 89.7785C152.367 89.5599 156.966 89.45 159.721 89.477C164.679 89.5256 166.454 90.5229 167.901 91.1538C169.938 92.0424 172.056 92.9819 173.447 93.9728C173.778 94.2087 174.048 94.5408 173.993 94.575C172.615 95.4294 167.998 94.8396 162.77 96.521C160.527 97.242 157.324 99.5128 154.235 101.86C151.687 103.796 147.97 106.299 145.228 108.818C143.695 110.076 142.419 110.926 141.517 111.405C141.092 111.646 140.734 111.883 140.003 112.128M147.597 73.6047C149.448 73.5453 154.69 73.3059 157.373 73.2447C158.208 73.2256 157.968 73.5399 157.606 73.7217C155.445 74.8082 151.835 78.6199 149.832 81.069C148.924 83.0807 148.085 85.1148 147.178 86.3227C146.937 86.5046 144.956 87.1722 144.829 87.2946M52.1346 73.6045C49.918 72.8881 45.5825 71.9268 40.1314 73.1779C38.955 73.4479 38.5241 73.9574 38.9047 74.4083C41.3074 77.2552 44.2265 77.8529 47.1518 81.4802C49.2997 84.9995 50.3809 87.0372 51.2578 89.1083C51.4693 89.5629 51.7079 89.8599 52.1346 90.7059M51.2321 88.9059C51.2917 88.9059 51.3514 88.9059 51.6208 89.3218C51.8902 89.7376 52.3675 90.5693 52.673 91.2353C52.9786 91.9014 53.0979 92.3766 53.2209 92.8662M53.7617 93.9464C52.6805 93.4675 46.1066 92.8699 40.0083 92.9842C34.333 93.0906 30.5796 95.7933 28.4561 97.3621C27.4225 98.1258 26.4031 98.4449 26.2504 98.5961C24.2893 100.537 34.3945 96.9454 37.5711 98.0219C39.7054 98.7452 41.7602 101.795 42.8803 103.183C44.3112 104.956 46.5189 107.739 47.911 108.943C49.7931 110.572 52.3044 112.002 55.708 113.234C57.4541 113.866 59.0591 114.227 60.3256 114.199C60.6881 114.11 61.1057 113.932 61.4402 113.751C61.7747 113.57 62.0133 113.392 62.6208 113.028M91.7316 111.048C91.7316 111.167 92.6265 113.782 94.1615 118.276C94.8015 120.216 95.1595 121.463 96.1196 123.057C97.0796 124.65 98.6309 126.551 100.229 128.509M101.674 81.7053C101.912 83.4875 102.151 85.2696 102.751 88.5045C103.351 91.7394 104.306 96.3729 104.857 98.9381C105.487 101.869 106.009 104.781 106.551 109.483C106.676 115.483 106.436 117.161 106.046 118.776C105.776 119.678 105.358 120.747 104.928 121.849" stroke="#B08FD6" stroke-width="2.5" stroke-linecap="round"/>
</svg>
