<svg width="32" height="32" viewBox="0 0 32 32" fill="none" xmlns="http://www.w3.org/2000/svg">
<g clip-path="url(#clip0_167_502)">
<path fill-rule="evenodd" clip-rule="evenodd" d="M1.44186 2.58306C4.47174 0.998973 7.84736 0.191479 11.2661 0.232967C14.6848 0.274455 18.0399 1.16363 21.0304 2.82078C21.211 2.92062 21.3611 3.06746 21.4649 3.24573C21.5688 3.42401 21.6224 3.62706 21.6201 3.83335L21.6156 4.29963C21.6104 4.46878 21.5694 4.6349 21.4952 4.78701C21.4211 4.93912 21.3155 5.07376 21.1854 5.182C21.0553 5.29025 20.9037 5.36965 20.7407 5.41495C20.5776 5.46025 20.4068 5.47042 20.2396 5.44478C17.2212 5.02235 14.1495 5.19003 11.195 5.93849C10.4947 6.11637 9.85565 6.48061 9.34575 6.99253C8.83584 7.50445 8.47412 8.14492 8.299 8.84592L6.85671 14.6059V14.6105C6.54192 15.8617 6.3694 17.1445 6.34243 18.4345C6.31957 19.4493 5.16071 20.0779 4.47728 19.3259C2.04211 16.6475 0.714582 13.1444 0.762998 9.52478L0.831569 3.58192C0.833387 3.37548 0.891088 3.1734 0.998543 2.99712C1.106 2.82085 1.25919 2.67697 1.44186 2.58078M21.9996 8.69278C18.6827 7.86132 15.2113 7.86603 11.8967 8.70649C11.6972 8.75759 11.5151 8.86168 11.3699 9.00773C11.2246 9.15379 11.1216 9.33638 11.0716 9.53621L9.63157 15.3008H9.62928C8.98122 17.8715 9.06131 20.5719 9.86059 23.0997C10.6599 25.6275 12.1468 27.8831 14.155 29.6139C14.8222 30.1998 15.6186 30.6194 16.4791 30.8383C17.3397 31.0572 18.2398 31.0692 19.1059 30.8733H19.1104C21.6927 30.2792 24.0593 28.9797 25.9464 27.1196C27.8335 25.2595 29.1671 22.9119 29.7984 20.3385L31.2384 14.5945C31.2882 14.3946 31.283 14.1851 31.2235 13.9879C31.1639 13.7908 31.0522 13.6134 30.9001 13.4745C28.3747 11.1686 25.3164 9.52558 21.9996 8.69278ZM15.9539 18.0802C16.058 18.112 16.1503 18.1741 16.219 18.2585C16.3205 18.4214 16.4537 18.5622 16.6108 18.6724C16.7678 18.7827 16.9455 18.8602 17.1332 18.9002C17.3209 18.9403 17.5147 18.9422 17.7031 18.9057C17.8915 18.8692 18.0706 18.7952 18.2298 18.6879C18.3889 18.5807 18.5249 18.4425 18.6294 18.2816C18.734 18.1207 18.8051 17.9403 18.8384 17.7514C18.8717 17.5624 18.8667 17.3686 18.8235 17.1816C18.7803 16.9946 18.6999 16.8183 18.587 16.6631C18.183 16.0834 17.6098 15.6428 16.9459 15.4013C16.3858 15.1926 15.783 15.1243 15.1904 15.2025C14.8173 15.2624 14.4831 15.4676 14.261 15.7733C14.0389 16.079 13.947 16.4603 14.0053 16.8336C14.0637 17.2069 14.2675 17.5419 14.5723 17.7653C14.8771 17.9887 15.258 18.0822 15.6316 18.0253H15.659L15.739 18.0299C15.806 18.036 15.8777 18.0528 15.9539 18.0802ZM23.1333 19.9316C22.9616 19.9104 22.7873 19.9283 22.6236 19.9842C22.2791 20.1307 21.8908 20.1361 21.5423 19.9993C21.1939 19.8625 20.913 19.5943 20.7603 19.2525C20.6075 18.9108 20.595 18.5227 20.7255 18.1718C20.8559 17.8208 21.1189 17.5352 21.4579 17.3762C22.107 17.0859 22.7973 17.0379 23.3573 17.0836C23.9196 17.1271 24.4864 17.2733 24.9413 17.4996C25.2802 17.6694 25.5377 17.9668 25.6573 18.3264C25.7769 18.6861 25.7487 19.0785 25.579 19.4173C25.4093 19.7562 25.1119 20.0138 24.7522 20.1334C24.3926 20.253 24.0002 20.2248 23.6613 20.0551C23.4943 19.9844 23.3142 19.9427 23.1333 19.9316Z" fill="#232A76"/>
</g>
<defs>
<clipPath id="clip0_167_502">
<rect width="32" height="32" fill="white"/>
</clipPath>
</defs>
</svg>
