<svg width="23" height="24" viewBox="0 0 23 24" fill="none" xmlns="http://www.w3.org/2000/svg">
<path d="M2.57446 12.6495L18.4806 4.41332L17.1922 2.01746C16.7043 1.09449 15.5089 0.718863 14.4878 1.2262L2.01799 7.7648C1.09501 8.25277 0.719391 9.44814 1.22673 10.4692L2.57446 12.6495ZM2.57446 12.6495L20.2337 9.16375L21.7829 17.0123C21.8857 17.5327 21.7775 18.0726 21.4821 18.5132C21.1868 18.9538 20.7285 19.259 20.2081 19.3618L6.47313 22.0729C5.95274 22.1756 5.41286 22.0674 4.97225 21.7721C4.53164 21.4767 4.22641 21.0185 4.12369 20.4981L2.57446 12.6495ZM4.61006 6.43772L8.40663 9.66356M10.3248 3.37303L14.1407 6.69699" stroke="#84D1D8" stroke-width="2" stroke-linecap="round" stroke-linejoin="round"/>
</svg>
