<svg width="46" height="46" viewBox="0 0 46 46" fill="none" xmlns="http://www.w3.org/2000/svg">
<path d="M11.4997 38.3335C10.9566 38.3335 10.5017 38.1495 10.135 37.7815C9.76829 37.4135 9.58429 36.9586 9.58301 36.4168C9.58173 35.8751 9.76573 35.4202 10.135 35.0522C10.5043 34.6842 10.9592 34.5002 11.4997 34.5002H34.4997C35.0427 34.5002 35.4983 34.6842 35.8663 35.0522C36.2343 35.4202 36.4176 35.8751 36.4163 36.4168C36.4151 36.9586 36.2311 37.4141 35.8643 37.7834C35.4976 38.1527 35.0427 38.3361 34.4997 38.3335H11.4997ZM12.8413 31.6252C11.915 31.6252 11.0927 31.3217 10.3746 30.7147C9.65648 30.1078 9.21693 29.3411 9.05593 28.4147L7.13926 16.2439C7.07537 16.2439 7.00382 16.2522 6.9246 16.2688C6.84537 16.2854 6.77318 16.2931 6.70801 16.2918C5.9094 16.2918 5.2309 16.0126 4.67251 15.4542C4.11412 14.8959 3.83429 14.2167 3.83301 13.4168C3.83173 12.6169 4.11157 11.9384 4.67251 11.3813C5.23346 10.8242 5.91196 10.5444 6.70801 10.5418C7.50407 10.5393 8.18321 10.8191 8.74543 11.3813C9.30765 11.9436 9.58685 12.6221 9.58301 13.4168C9.58301 13.6404 9.55873 13.8481 9.51018 14.0397C9.46162 14.2314 9.40604 14.4071 9.34343 14.5668L15.333 17.2502L21.3226 9.05642C20.9712 8.80086 20.6837 8.46544 20.4601 8.05017C20.2365 7.63489 20.1247 7.18767 20.1247 6.7085C20.1247 5.90989 20.4045 5.23075 20.9642 4.67108C21.5238 4.11142 22.2023 3.83222 22.9997 3.8335C23.797 3.83478 24.4761 4.11461 25.0371 4.673C25.598 5.23139 25.8772 5.90989 25.8747 6.7085C25.8747 7.18767 25.7629 7.63489 25.5393 8.05017C25.3156 8.46544 25.0281 8.80086 24.6768 9.05642L30.6663 17.2502L36.6559 14.5668C36.592 14.4071 36.5358 14.2314 36.4873 14.0397C36.4387 13.8481 36.4151 13.6404 36.4163 13.4168C36.4163 12.6182 36.6962 11.9391 37.2558 11.3794C37.8155 10.8197 38.494 10.5406 39.2913 10.5418C40.0887 10.5431 40.7678 10.8229 41.3288 11.3813C41.8897 11.9397 42.1689 12.6182 42.1663 13.4168C42.1638 14.2154 41.8846 14.8946 41.3288 15.4542C40.7729 16.0139 40.0938 16.2931 39.2913 16.2918C39.2275 16.2918 39.1559 16.2842 39.0767 16.2688C38.9975 16.2535 38.9253 16.2452 38.8601 16.2439L36.9434 28.4147C36.7837 29.3411 36.3448 30.1078 35.6267 30.7147C34.9086 31.3217 34.0857 31.6252 33.158 31.6252H12.8413Z" fill="#EFC25D"/>
</svg>
