<svg width="200" height="200" viewBox="0 0 200 200" fill="none" xmlns="http://www.w3.org/2000/svg">
<rect width="200" height="200" rx="8" fill="#F4E1E1"/>
<path d="M78.5396 52.4906C75.9277 60.1874 75.5593 64.5679 76.1046 65.9399C77.1214 68.498 82.906 67.374 84.5831 66.8574C86.318 66.323 87.5898 63.2595 88.447 60.3997C89.2694 57.6561 89.1784 55.2894 89.2395 54.3501C89.2967 53.4708 88.8173 52.6163 88.0905 51.9485C85.361 51.5795 81.9539 51.6998 80.399 52.2455C80.0625 52.3685 79.7616 52.4286 78.722 52.4906M62.3054 53.4011C63.0259 55.6879 65.1598 60.1412 65.8566 60.4747C68.1282 61.5619 70.9362 59.7804 71.3611 59.2967C72.4315 58.0781 70.1628 53.4958 68.7839 50.6423C68.4583 49.9685 67.3558 50.0611 66.5369 50C66.1393 49.9991 65.7781 50.0592 65.1708 50.4209C64.5634 50.7826 63.7208 51.4441 62.6702 52.49M50.4498 56.3168C50.4869 56.4076 50.5267 56.5057 50.5687 56.6101M50.5687 56.6101C50.9095 57.4554 51.4023 58.712 51.8416 59.8124M50.5687 56.6101C50.5397 56.8244 50.5899 57.0785 50.7298 57.3956C51.0766 58.1816 51.4791 59.0417 51.8416 59.8124M50.5687 56.6101C50.6181 56.2452 50.8969 55.9952 51.3536 55.7456C53.2402 54.7143 55.0662 54.4947 55.9754 54.5849C57.0348 54.69 57.8038 55.2217 58.2589 55.6153C59.4801 56.6715 59.387 59.1047 59.5384 60.321C59.5763 60.6255 59.5694 60.9269 59.4189 61.172C58.1759 61.8434 56.5362 61.9054 55.1418 61.7241C54.4096 61.6029 53.6271 61.4225 52.8209 61.2367M51.8416 59.8124C52.3171 61.0033 52.7301 62.0113 52.82 62.1168C53.0723 62.4128 52.5288 61.2732 51.8416 59.8124ZM40.0534 62.3296C41.9794 65.9375 43.7541 67.9765 45.391 68.2498C46.2388 68.3914 47.1484 68.3427 47.7639 68.0421C48.3795 67.7414 48.6804 67.1401 48.5044 66.199C48.3284 65.2578 47.6664 63.9951 47.1447 63.2243C46.2619 62.213 44.2046 61.8449 41.5006 61.6928C40.482 61.6609 40.181 61.721 39.871 61.783M34.7668 73.2627C34.6464 73.2627 35.5474 74.1046 37.2473 75.3801C39.1059 76.7746 41.207 74.8443 41.9356 74.3597C42.2625 74.1422 42.4235 73.875 42.2156 73.2099C41.641 71.3718 40.3042 69.9263 39.3037 69.2585C38.3856 68.6456 37.2637 68.8895 36.4749 69.0098C35.2556 69.9792 34.4658 71.0725 34.0098 71.7695C33.8548 72.1056 35.5772 73.5032 35.942 74.3597M76.8969 89.8446C77.6209 88.3997 79.6838 83.3104 80.3313 81.0427C80.9153 78.9971 79.454 76.6085 78.6934 75.2428C77.8431 73.7159 75.8755 72.4831 73.4095 71.3524C71.5119 70.4824 69.1817 70.2892 66.8745 69.8628C65.1324 69.5409 63.2868 69.6187 61.7338 69.83C58.9431 70.2098 54.1162 71.6157 52.3698 72.5314C50.8996 73.3022 48.8233 74.7098 46.7777 76.5975C45.6839 77.607 44.6793 78.7841 43.1901 83.5691C42.3831 86.1621 43.1509 89.1595 43.8814 91.7779C44.8529 95.2603 46.0035 97.7273 47.0422 100.343C48.1955 103.247 50.7384 108.883 52.6945 112.068C53.876 113.991 54.9443 116.375 56.9169 119.504C58.6778 122.297 62.6448 126.867 65.4591 129.56C68.1301 132.116 70.5642 134.178 72.3608 135.001C75.1488 136.279 79.7421 136.127 84.0539 134.133C87.3199 132.622 88.3504 130.607 89.2569 128.835L89.2967 128.757C90.2044 126.983 89.4253 124.236 88.185 121.24C85.4839 114.713 83.1054 113.482 81.3736 111.659C78.3258 108.45 77.455 105.169 75.8071 100.555C75.859 93.4452 77.1358 89.4255 77.8644 88.2739C78.1718 87.7236 78.3523 87.2426 78.5384 86.5647M109.687 71.1526C109.668 71.1526 109.655 71.2026 109.649 71.3017M109.649 71.3017C109.617 71.8367 109.785 73.8036 110.32 77.0764C110.901 80.6251 113.264 82.8071 115.085 83.9305C117.108 85.1784 119.463 84.0936 121.051 83.2435C122.835 82.2884 123.301 79.7313 123.67 77.5675C124.064 75.2621 121.189 71.7758 119.542 70.0939C118.37 68.8974 117.111 68.1205 113.865 67.7515C111.937 67.5324 110.486 68.7182 109.508 69.7814C109.324 70.1158 109.144 70.5367 109.231 70.8437C109.286 71.0348 109.446 71.1769 109.649 71.3017ZM109.649 71.3017C109.773 71.3774 109.912 71.4468 110.052 71.517M129.567 64.0456C129.541 64.1167 129.513 64.1978 129.484 64.288M129.484 64.288C128.851 66.2559 127.631 72.5989 127.803 75.7002C127.827 76.1463 128.104 76.3707 128.378 76.5548C128.962 76.9476 130.829 76.081 133.169 74.3536C135.923 72.3194 135.039 68.5537 134.616 66.5119C133.403 65.2031 131.341 64.3522 129.484 64.288ZM129.484 64.288C129.483 64.288 129.484 64.2881 129.484 64.288ZM129.484 64.288C129.085 64.3482 128.783 64.4684 129.02 64.9567M142.152 66.049C140.886 68.334 138.686 73.3941 138.807 74.2123C138.929 75.0428 139.837 75.5825 140.746 75.8868C141.724 76.214 142.876 75.4659 144.208 74.1093C146.726 71.546 147.076 68.6036 147.016 67.9067C146.987 67.5664 146.835 67.2698 146.533 66.9947C144.771 66.1711 143.312 66.1091 142.492 66.3205C142.153 66.4717 141.973 66.7122 142.152 67.3245M155.649 69.8765C153.781 71.1356 150.299 74.7927 150.238 75.4896C150.182 76.1268 150.72 76.797 151.508 77.4038C153.694 79.0869 157.768 74.3189 158.627 72.4949C158.57 72.0667 158.209 71.7059 157.482 71.3697C156.754 71.0335 155.67 70.7329 154.737 70.7875M163.491 76.8002C163.213 76.9397 162.779 77.1611 162.281 77.4525M162.281 77.4525C161.059 78.1668 159.444 79.3014 158.752 80.6796C158.525 81.1317 158.687 81.5306 159.049 82.0171C159.411 82.5036 160.073 83.1049 161.016 83.2343C163.155 83.5278 164.825 82.2102 165.523 81.332C166.158 80.5341 166.045 79.5973 165.834 78.9914C165.623 78.6862 165.202 78.3855 164.503 78.1404C163.875 77.92 163.033 77.7519 162.281 77.4525ZM162.281 77.4525C162.197 77.4191 162.114 77.3839 162.032 77.3469M127.56 105.409C126.595 104.447 123.803 101.171 122.214 98.7963C120.957 96.9185 122.814 93.5138 124.361 90.7214C126.205 87.3912 129.376 86.0977 131.229 84.8249C134.555 82.539 137.391 81.8484 140.922 81.0248C144.909 80.0949 148.042 80.8681 149.712 81.4138C152.725 82.3985 153.875 84.3848 155.46 85.4526C157.015 86.5003 158.676 89.5926 159.992 93.1594C160.385 94.2251 160.994 95.9209 161.692 98.1048C162.154 99.5481 162.034 102.65 161.579 107.228C161.223 110.823 160.272 113.175 159.755 114.781C159.307 116.176 158.152 119.955 156.179 125.143C154.225 130.28 153.16 132.672 151.643 135.067C150.141 137.438 148.185 140.863 145.304 144.106C141.198 148.728 138.999 148.835 137.052 149.472C134.536 150.297 132.736 149.99 131.032 149.659C129.245 149.312 127.268 147.814 125.831 146.201C124.666 144.893 125.189 142.351 125.701 139.439C126.377 135.601 127.801 132.927 128.436 131.539C129.63 128.93 130.172 126.672 130.807 124.591C132.163 120.151 132.061 115.567 131.636 113.079C131.247 110.8 129.942 108.04 127.598 104.66C127.137 104.075 126.896 103.835 126.621 103.62C126.347 103.406 126.046 103.226 125.554 102.311" stroke="#D68F8F" stroke-width="2.5" stroke-linecap="round"/>
</svg>
