<svg width="18" height="23" viewBox="0 0 18 23" fill="none" xmlns="http://www.w3.org/2000/svg">
<path d="M1.61311 7.54349L3.38862 7.74447C3.27791 8.71801 3.94586 9.62721 4.606 10.1531C5.46453 10.8363 6.58989 11.2329 7.67994 11.6154C8.84977 12.0255 10.1742 12.4898 11.2749 13.3771C13.2984 15.0062 13.9242 17.6662 13.0745 20.1216L11.6146 19.8436C12.225 18.0751 11.6106 15.9432 10.1554 14.7694C9.29548 14.0748 8.17437 13.6838 7.08926 13.3021C5.9166 12.8906 4.58934 12.4249 3.49358 11.5524C2.17259 10.4986 1.45091 8.9625 1.61311 7.54349ZM10.9833 7.49927C11.7973 7.42787 12.4616 7.70523 13.0504 7.93248L12.4061 9.59933C12.4061 9.59933 11.8328 9.15747 10.9045 9.17524L10.9833 7.49927ZM15.5224 16.5802L17.019 16.8977L16.5907 18.6337L15.092 18.3169L15.5224 16.5802ZM6.88377 1.50052L8.92124 1.98597L8.10185 3.86887L6.38697 3.0664L6.88377 1.50052Z" fill="#84D1D8"/>
</svg>
