<svg width="19" height="18" viewBox="0 0 19 18" fill="none" xmlns="http://www.w3.org/2000/svg">
<mask id="path-1-inside-1_104_8655" fill="white">
<path d="M5.48586 11.7454C5.73318 11.9126 6.02947 12.0024 6.33327 12.0021C6.63707 12.0018 6.93318 11.9115 7.18017 11.7439C7.42706 11.569 7.61472 11.3296 7.72013 11.0551L8.2696 9.45395C8.40139 9.07671 8.62436 8.73387 8.92072 8.45276C9.21708 8.17164 9.57864 7.96002 9.97657 7.83477L11.6962 7.30505C11.9846 7.20702 12.2332 7.02559 12.4069 6.78638C12.5805 6.54718 12.6705 6.26231 12.664 5.97203C12.6575 5.68174 12.5549 5.40073 12.3708 5.1687C12.1866 4.93666 11.9301 4.76535 11.6376 4.67896L9.94491 4.15974C9.54655 4.03504 9.18447 3.82383 8.88755 3.54296C8.59063 3.2621 8.36709 2.91935 8.23476 2.54207L7.6758 0.915393C7.57435 0.64677 7.38758 0.414529 7.14118 0.250609C6.89477 0.0866899 6.60082 -0.000855783 6.29976 1.25078e-05C5.9944 -0.00121901 5.69634 0.0885195 5.44772 0.256547C5.1991 0.424575 5.01247 0.662396 4.91423 0.936402L4.35051 2.57208C4.21814 2.93818 4.0001 3.27116 3.71272 3.5461C3.42535 3.82104 3.07607 4.03082 2.69104 4.15974L0.97456 4.68646C0.687806 4.7825 0.439807 4.96091 0.265124 5.19685C0.0904406 5.43279 -0.00222511 5.7145 4.05776e-05 6.00271C0.00230626 6.29092 0.0993903 6.57129 0.277764 6.80473C0.456137 7.03818 0.706913 7.21308 0.995145 7.30505L2.68471 7.82577C3.0836 7.95207 3.44597 8.16469 3.74309 8.44678C4.04021 8.72888 4.2639 9.07268 4.39643 9.45094L4.95381 11.0716C5.05357 11.3417 5.24042 11.5773 5.48744 11.7439M13.5156 17.7779C13.7302 17.9225 13.987 18.0001 14.2504 18C14.5162 17.9975 14.7747 17.9167 14.99 17.7688C15.2054 17.6209 15.3669 17.4133 15.4522 17.1747L15.8449 16.0312C15.9288 15.7941 16.0713 15.5765 16.2566 15.3994C16.4419 15.2223 16.6715 15.0888 16.9217 15.0108L18.1441 14.6326C18.3969 14.5504 18.6159 14.3946 18.7696 14.1874C18.9233 13.9801 19.0039 13.7321 18.9999 13.4789C18.9958 13.2256 18.9073 12.98 18.7471 12.7773C18.5868 12.5745 18.363 12.425 18.1077 12.3501L16.8979 11.9765C16.6478 11.8971 16.4204 11.7639 16.2337 11.5874C16.0469 11.4109 15.9057 11.1959 15.8212 10.9591L15.4221 9.79759C15.3363 9.55906 15.1734 9.35218 14.9565 9.20628C14.7397 9.06037 14.4799 8.98284 14.214 8.98466C13.9481 8.98649 13.6895 9.06758 13.4749 9.21645C13.2603 9.36532 13.1006 9.57441 13.0184 9.81409L12.6273 10.9576C12.5466 11.1926 12.4098 11.4069 12.2274 11.5836C12.045 11.7604 11.8221 11.8948 11.5759 11.9765L10.3471 12.3562C10.1611 12.4174 9.99274 12.519 9.85539 12.6527C9.71803 12.7864 9.61546 12.9486 9.55582 13.1265C9.49619 13.3044 9.48113 13.4929 9.51183 13.6773C9.54254 13.8616 9.61817 14.0366 9.73272 14.1884C9.88948 14.3985 10.1112 14.5561 10.3661 14.6386L11.5743 15.0093C11.8253 15.0894 12.0531 15.2237 12.24 15.4016C12.4269 15.5794 12.5676 15.796 12.6511 16.0342L13.0517 17.1957C13.1384 17.4305 13.3 17.6339 13.514 17.7779"/>
</mask>
<path d="M7.18017 11.7439L8.02258 12.985L8.03499 12.9766L8.04724 12.9679L7.18017 11.7439ZM7.72013 11.0551L9.12044 11.5928L9.13014 11.5676L9.13892 11.542L7.72013 11.0551ZM8.2696 9.45395L6.85351 8.9592L6.85081 8.96707L8.2696 9.45395ZM9.97657 7.83477L9.53498 6.40122L9.52623 6.40397L9.97657 7.83477ZM11.6962 7.30505L12.1378 8.73858L12.1585 8.73221L12.179 8.72524L11.6962 7.30505ZM11.6376 4.67896L11.1978 6.11301L11.2052 6.11531L11.2128 6.11753L11.6376 4.67896ZM9.94491 4.15974L9.49677 5.59126L9.50503 5.5938L9.94491 4.15974ZM8.23476 2.54207L6.81615 3.02954L6.8193 3.03852L8.23476 2.54207ZM7.6758 0.915393L9.09438 0.427934L9.08704 0.406584L9.07907 0.385465L7.6758 0.915393ZM6.29976 1.25078e-05L6.29371 1.50004L6.30409 1.50001L6.29976 1.25078e-05ZM4.91423 0.936402L3.50225 0.430129L3.49911 0.438875L3.49608 0.447659L4.91423 0.936402ZM4.35051 2.57208L5.76113 3.08214L5.76497 3.07151L5.76866 3.06083L4.35051 2.57208ZM2.69104 4.15974L3.13108 5.59375L3.14926 5.58817L3.1673 5.58213L2.69104 4.15974ZM0.97456 4.68646L0.534522 3.25246L0.516292 3.25805L0.498211 3.26411L0.97456 4.68646ZM0.995145 7.30505L0.539148 8.73406L0.546241 8.73632L0.553356 8.73852L0.995145 7.30505ZM2.68471 7.82577L3.1375 6.39569L3.12649 6.3923L2.68471 7.82577ZM4.39643 9.45094L5.81491 8.9631L5.81205 8.95494L4.39643 9.45094ZM4.95381 11.0716L3.53536 11.5595L3.54086 11.5754L3.54671 11.5913L4.95381 11.0716ZM14.2504 18L14.2511 19.5001L14.2647 19.4999L14.2504 18ZM15.4522 17.1747L16.8646 17.6797L16.8678 17.6708L16.8709 17.6619L15.4522 17.1747ZM15.8449 16.0312L14.4308 15.5306L14.4262 15.544L15.8449 16.0312ZM16.9217 15.0108L16.4784 13.5778L16.475 13.5788L16.9217 15.0108ZM18.1441 14.6326L18.5874 16.0656L18.5976 16.0625L18.6077 16.0592L18.1441 14.6326ZM18.1077 12.3501L17.665 13.7833L17.6753 13.7865L17.6856 13.7895L18.1077 12.3501ZM16.8979 11.9765L16.444 13.4062L16.4552 13.4097L16.8979 11.9765ZM15.8212 10.9591L14.4025 11.4464L14.4054 11.4549L14.4085 11.4633L15.8212 10.9591ZM15.4221 9.79759L16.8407 9.31021L16.8372 9.29989L16.8335 9.28962L15.4221 9.79759ZM13.0184 9.81409L11.5995 9.32753L11.5991 9.32864L13.0184 9.81409ZM12.6273 10.9576L14.0461 11.4444L14.0466 11.443L12.6273 10.9576ZM11.5759 11.9765L12.0187 13.4096L12.0335 13.4051L12.0482 13.4002L11.5759 11.9765ZM10.3471 12.3562L9.9043 10.923L9.89096 10.9271L9.8777 10.9315L10.3471 12.3562ZM9.73272 14.1884L10.9349 13.2913L10.93 13.2849L9.73272 14.1884ZM10.3661 14.6386L9.9041 16.0657L9.91511 16.0692L9.92617 16.0726L10.3661 14.6386ZM11.5743 15.0093L12.0307 13.5804L12.0225 13.5778L12.0142 13.5752L11.5743 15.0093ZM12.6511 16.0342L14.0691 15.5451L14.0666 15.538L12.6511 16.0342ZM13.0517 17.1957L11.6336 17.6848L11.639 17.7002L11.6446 17.7155L13.0517 17.1957ZM5.48586 11.7454L4.64573 12.988C5.14613 13.3264 5.73652 13.5026 6.3346 13.5021L6.33327 12.0021L6.33194 10.5021C6.32799 10.5021 6.32494 10.5015 6.32323 10.501C6.32152 10.5004 6.32264 10.5005 6.32599 10.5027L5.48586 11.7454ZM6.33327 12.0021L6.3346 13.5021C6.93267 13.5016 7.52277 13.3243 8.02258 12.985L7.18017 11.7439L6.33776 10.5028C6.34115 10.5005 6.34229 10.5004 6.34061 10.5009C6.33893 10.5015 6.33589 10.5021 6.33194 10.5021L6.33327 12.0021ZM7.18017 11.7439L8.04724 12.9679C8.52829 12.6271 8.9057 12.1521 9.12044 11.5928L7.72013 11.0551L6.31982 10.5174C6.32375 10.5072 6.32583 10.5109 6.3131 10.5199L7.18017 11.7439ZM7.72013 11.0551L9.13892 11.542L9.68838 9.94082L8.2696 9.45395L6.85081 8.96707L6.30135 10.5682L7.72013 11.0551ZM8.2696 9.45395L9.68566 9.94869C9.73684 9.80219 9.82603 9.66149 9.95302 9.54104L8.92072 8.45276L7.88842 7.36448C7.42269 7.80625 7.06595 8.35123 6.85354 8.9592L8.2696 9.45395ZM8.92072 8.45276L9.95302 9.54104C10.0803 9.42026 10.2417 9.32387 10.4269 9.26557L9.97657 7.83477L9.52623 6.40397C8.91559 6.59617 8.35382 6.92302 7.88842 7.36448L8.92072 8.45276ZM9.97657 7.83477L10.4182 9.2683L12.1378 8.73858L11.6962 7.30505L11.2546 5.87152L9.53499 6.40124L9.97657 7.83477ZM11.6962 7.30505L12.179 8.72524C12.7514 8.53068 13.2591 8.16574 13.6207 7.66762L12.4069 6.78638L11.193 5.90515C11.2073 5.88543 11.2179 5.88337 11.2135 5.88486L11.6962 7.30505ZM12.4069 6.78638L13.6207 7.66762C13.9833 7.16814 14.1775 6.56313 14.1636 5.93857L12.664 5.97203L11.1644 6.00548C11.1634 5.96149 11.1777 5.92622 11.193 5.90515L12.4069 6.78638ZM12.664 5.97203L14.1636 5.93857C14.1497 5.31412 13.9288 4.71884 13.5457 4.23615L12.3708 5.1687L11.1959 6.10124C11.1811 6.08262 11.1653 6.04937 11.1644 6.00548L12.664 5.97203ZM12.3708 5.1687L13.5457 4.23615C13.1636 3.75476 12.6418 3.41148 12.0625 3.24039L11.6376 4.67896L11.2128 6.11753C11.215 6.1182 11.2145 6.11842 11.2116 6.11651C11.2087 6.1146 11.2028 6.11003 11.1959 6.10124L12.3708 5.1687ZM11.6376 4.67896L12.0775 3.2449L10.3848 2.72569L9.94491 4.15974L9.50503 5.5938L11.1978 6.11301L11.6376 4.67896ZM9.94491 4.15974L10.393 2.72825C10.2076 2.67019 10.0459 2.57395 9.91834 2.45325L8.88755 3.54296L7.85676 4.63268C8.323 5.0737 8.88554 5.39989 9.49678 5.59124L9.94491 4.15974ZM8.88755 3.54296L9.91834 2.45325C9.79107 2.33286 9.70162 2.19216 9.65022 2.04562L8.23476 2.54207L6.8193 3.03852C7.03255 3.64654 7.39019 4.19133 7.85676 4.63268L8.88755 3.54296ZM8.23476 2.54207L9.65335 2.05461L9.09438 0.427934L7.6758 0.915393L6.25721 1.40285L6.81618 3.02953L8.23476 2.54207ZM7.6758 0.915393L9.07907 0.385465C8.86315 -0.186298 8.47117 -0.666219 7.97198 -0.998293L7.14118 0.250609L6.31037 1.49951C6.304 1.49528 6.28556 1.47984 6.27252 1.44532L7.6758 0.915393ZM7.14118 0.250609L7.97198 -0.998293C7.4737 -1.32977 6.88814 -1.50169 6.29544 -1.49998L6.29976 1.25078e-05L6.30409 1.50001C6.308 1.49999 6.31105 1.50059 6.3128 1.50111C6.31456 1.50163 6.31356 1.50164 6.31037 1.49951L7.14118 0.250609ZM6.29976 1.25078e-05L6.30581 -1.49998C5.70469 -1.5024 5.11082 -1.3262 4.6078 -0.986246L5.44772 0.256547L6.28764 1.49934C6.28427 1.50162 6.28317 1.50164 6.28491 1.50112C6.28665 1.50059 6.28974 1.49998 6.29371 1.5L6.29976 1.25078e-05ZM5.44772 0.256547L4.6078 -0.986246C4.10381 -0.645635 3.71159 -0.153707 3.50225 0.430129L4.91423 0.936402L6.32621 1.44268C6.31336 1.4785 6.29438 1.49479 6.28764 1.49934L5.44772 0.256547ZM4.91423 0.936402L3.49608 0.447659L2.93237 2.08334L4.35051 2.57208L5.76866 3.06083L6.33237 1.42515L4.91423 0.936402ZM4.35051 2.57208L2.9399 2.06202C2.88792 2.20578 2.79977 2.34362 2.67578 2.46225L3.71272 3.5461L4.74967 4.62995C5.20044 4.1987 5.54836 3.67058 5.76113 3.08214L4.35051 2.57208ZM3.71272 3.5461L2.67578 2.46225C2.55149 2.58115 2.39479 2.67709 2.21478 2.73736L2.69104 4.15974L3.1673 5.58213C3.75736 5.38456 4.2992 5.06093 4.74967 4.62995L3.71272 3.5461ZM2.69104 4.15974L2.251 2.72574L0.534522 3.25246L0.97456 4.68646L1.4146 6.12047L3.13108 5.59375L2.69104 4.15974ZM0.97456 4.68646L0.498211 3.26411C-0.0708145 3.45468 -0.576947 3.81336 -0.940422 4.30429L0.265124 5.19685L1.47067 6.08941C1.45656 6.10847 1.44643 6.11032 1.45091 6.10882L0.97456 4.68646ZM0.265124 5.19685L-0.940422 4.30429C-1.30487 4.79654 -1.50479 5.39444 -1.49991 6.0145L4.05776e-05 6.00271L1.49999 5.99092C1.50034 6.03455 1.48575 6.06904 1.47067 6.08941L0.265124 5.19685ZM4.05776e-05 6.00271L-1.49991 6.0145C-1.49504 6.63453 -1.28578 7.22904 -0.914128 7.71544L0.277764 6.80473L1.46966 5.89402C1.48456 5.91353 1.49965 5.94732 1.49999 5.99092L4.05776e-05 6.00271ZM0.277764 6.80473L-0.914128 7.71544C-0.54346 8.20056 -0.0323605 8.55169 0.539148 8.73406L0.995145 7.30505L1.45114 5.87604C1.44619 5.87446 1.45573 5.8758 1.46966 5.89402L0.277764 6.80473ZM0.995145 7.30505L0.553356 8.73852L2.24292 9.25923L2.68471 7.82577L3.12649 6.3923L1.43693 5.87159L0.995145 7.30505ZM2.68471 7.82577L2.23192 9.2558C2.41881 9.31497 2.58166 9.41247 2.71029 9.53459L3.74309 8.44678L4.77589 7.35898C4.31029 6.91692 3.7484 6.58916 3.13749 6.39574L2.68471 7.82577ZM3.74309 8.44678L2.71029 9.53459C2.83858 9.6564 2.92886 9.79868 2.98081 9.94695L4.39643 9.45094L5.81205 8.95494C5.59893 8.34668 5.24183 7.80136 4.77589 7.35898L3.74309 8.44678ZM4.39643 9.45094L2.97798 9.93878L3.53536 11.5595L4.95381 11.0716L6.37227 10.5838L5.81489 8.96311L4.39643 9.45094ZM4.95381 11.0716L3.54671 11.5913C3.75913 12.1664 4.15018 12.6513 4.64882 12.9876L5.48744 11.7439L6.32607 10.5002C6.33067 10.5033 6.34802 10.517 6.36092 10.5519L4.95381 11.0716ZM13.5156 17.7779L12.6774 19.0219C13.1445 19.3366 13.6945 19.5003 14.2511 19.5L14.2504 18L14.2496 16.5C14.2796 16.5 14.3159 16.5084 14.3538 16.5339L13.5156 17.7779ZM14.2504 18L14.2647 19.4999C14.8231 19.4946 15.3733 19.3253 15.8392 19.0053L14.99 17.7688L14.1409 16.5323C14.1762 16.5081 14.2094 16.5003 14.236 16.5001L14.2504 18ZM14.99 17.7688L15.8392 19.0053C16.306 18.6847 16.6697 18.2249 16.8646 17.6797L15.4522 17.1747L14.0398 16.6696C14.0641 16.6018 14.1047 16.5572 14.1409 16.5323L14.99 17.7688ZM15.4522 17.1747L16.8709 17.6619L17.2636 16.5184L15.8449 16.0312L14.4262 15.544L14.0335 16.6874L15.4522 17.1747ZM15.8449 16.0312L17.2589 16.5317C17.2617 16.5239 17.2716 16.5043 17.293 16.4838L16.2566 15.3994L15.2202 14.3151C14.8711 14.6487 14.596 15.0643 14.4309 15.5307L15.8449 16.0312ZM16.2566 15.3994L17.293 16.4838C17.3049 16.4724 17.3305 16.4545 17.3683 16.4427L16.9217 15.0108L16.475 13.5788C16.0124 13.7231 15.5788 13.9723 15.2202 14.3151L16.2566 15.3994ZM16.9217 15.0108L17.365 16.4438L18.5874 16.0656L18.1441 14.6326L17.7008 13.1996L16.4784 13.5778L16.9217 15.0108ZM18.1441 14.6326L18.6077 16.0592C19.1473 15.8838 19.629 15.5466 19.9744 15.081L18.7696 14.1874L17.5648 13.2938C17.6027 13.2426 17.6466 13.2171 17.6805 13.206L18.1441 14.6326ZM18.7696 14.1874L19.9744 15.081C20.3207 14.614 20.5091 14.0447 20.4997 13.4549L18.9999 13.4789L17.5 13.5028C17.4987 13.4195 17.5259 13.3463 17.5648 13.2938L18.7696 14.1874ZM18.9999 13.4789L20.4997 13.4549C20.4903 12.8652 20.2839 12.3026 19.9239 11.8471L18.7471 12.7773L17.5703 13.7074C17.5308 13.6574 17.5014 13.586 17.5 13.5028L18.9999 13.4789ZM18.7471 12.7773L19.9239 11.8471C19.5649 11.3929 19.0739 11.0703 18.5298 10.9108L18.1077 12.3501L17.6856 13.7895C17.6522 13.7797 17.6088 13.7561 17.5703 13.7074L18.7471 12.7773ZM18.1077 12.3501L18.5503 10.917L17.3406 10.5433L16.8979 11.9765L16.4552 13.4097L17.665 13.7833L18.1077 12.3501ZM16.8979 11.9765L17.3518 10.5468C17.3122 10.5342 17.283 10.5152 17.2638 10.4972L16.2337 11.5874L15.2035 12.6777C15.5579 13.0126 15.9834 13.2599 16.444 13.4062L16.8979 11.9765ZM16.2337 11.5874L17.2638 10.4972C17.245 10.4794 17.2371 10.4638 17.2339 10.4548L15.8212 10.9591L14.4085 11.4633C14.5743 11.9279 14.8487 12.3425 15.2035 12.6777L16.2337 11.5874ZM15.8212 10.9591L17.2398 10.4717L16.8407 9.31021L15.4221 9.79759L14.0035 10.285L14.4025 11.4464L15.8212 10.9591ZM15.4221 9.79759L16.8335 9.28962C16.636 8.74095 16.2668 8.27996 15.7939 7.96178L14.9565 9.20628L14.1192 10.4508C14.08 10.4244 14.0365 10.3772 14.0107 10.3056L15.4221 9.79759ZM14.9565 9.20628L15.7939 7.96178C15.322 7.64425 14.7658 7.48084 14.2037 7.4847L14.214 8.98466L14.2243 10.4846C14.194 10.4848 14.1574 10.4765 14.1192 10.4508L14.9565 9.20628ZM14.214 8.98466L14.2037 7.4847C13.6416 7.48856 13.0875 7.65961 12.6199 7.984L13.4749 9.21645L14.3299 10.4489C14.2915 10.4756 14.2546 10.4844 14.2243 10.4846L14.214 8.98466ZM13.4749 9.21645L12.6199 7.984C12.1513 8.30907 11.7888 8.77568 11.5995 9.32753L13.0184 9.81409L14.4373 10.3007C14.4125 10.3731 14.3693 10.4216 14.3299 10.4489L13.4749 9.21645ZM13.0184 9.81409L11.5991 9.32864L11.208 10.4721L12.6273 10.9576L14.0466 11.443L14.4377 10.2995L13.0184 9.81409ZM12.6273 10.9576L11.2085 10.4707C11.2063 10.4772 11.2 10.4905 11.1835 10.5065L12.2274 11.5836L13.2713 12.6608C13.6196 12.3233 13.887 11.9081 14.0461 11.4444L12.6273 10.9576ZM12.2274 11.5836L11.1835 10.5065C11.1667 10.5227 11.1403 10.5406 11.1035 10.5528L11.5759 11.9765L12.0482 13.4002C12.5038 13.249 12.9233 12.998 13.2713 12.6608L12.2274 11.5836ZM11.5759 11.9765L11.1331 10.5433L9.9043 10.923L10.3471 12.3562L10.7899 13.7893L12.0187 13.4096L11.5759 11.9765ZM10.3471 12.3562L9.8777 10.9315C9.48014 11.0625 9.11325 11.2818 8.80904 11.5779L9.85539 12.6527L10.9017 13.7275C10.8722 13.7562 10.8421 13.7724 10.8165 13.7808L10.3471 12.3562ZM9.85539 12.6527L8.80904 11.5779C8.5045 11.8744 8.2709 12.2403 8.13365 12.6496L9.55582 13.1265L10.978 13.6034C10.96 13.657 10.9316 13.6984 10.9017 13.7275L9.85539 12.6527ZM9.55582 13.1265L8.13365 12.6496C7.99626 13.0593 7.96101 13.4963 8.03222 13.9237L9.51183 13.6773L10.9914 13.4308C11.0012 13.4896 10.9961 13.5494 10.978 13.6034L9.55582 13.1265ZM9.51183 13.6773L8.03222 13.9237C8.10339 14.351 8.27782 14.7506 8.53539 15.092L9.73272 14.1884L10.93 13.2849C10.9585 13.3226 10.9817 13.3722 10.9914 13.4308L9.51183 13.6773ZM9.73272 14.1884L8.53052 15.0855C8.87753 15.5505 9.36052 15.8897 9.9041 16.0657L10.3661 14.6386L10.8281 13.2115C10.8618 13.2224 10.9014 13.2465 10.9349 13.2914L9.73272 14.1884ZM10.3661 14.6386L9.92617 16.0726L11.1344 16.4433L11.5743 15.0093L12.0142 13.5752L10.806 13.2046L10.3661 14.6386ZM11.5743 15.0093L11.1179 16.4381C11.1576 16.4508 11.1868 16.4699 11.2058 16.4881L12.24 15.4016L13.2742 14.3151C12.9195 13.9775 12.4929 13.728 12.0307 13.5804L11.5743 15.0093ZM12.24 15.4016L11.2058 16.4881C11.2245 16.5059 11.2324 16.5214 11.2355 16.5303L12.6511 16.0342L14.0666 15.538C13.9028 15.0706 13.6292 14.653 13.2742 14.3151L12.24 15.4016ZM12.6511 16.0342L11.233 16.5233L11.6336 17.6848L13.0517 17.1957L14.4697 16.7066L14.0691 15.5451L12.6511 16.0342ZM13.0517 17.1957L11.6446 17.7155C11.844 18.2553 12.21 18.7085 12.6768 19.0225L13.514 17.7779L14.3513 16.5333C14.39 16.5593 14.4328 16.6057 14.4587 16.6758L13.0517 17.1957Z" fill="#A4B1E4" mask="url(#path-1-inside-1_104_8655)"/>
</svg>
