<svg width="19" height="18" viewBox="0 0 19 18" fill="none" xmlns="http://www.w3.org/2000/svg">
<mask id="path-1-inside-1_104_9386" fill="white">
<path d="M5.48586 11.7454C5.73318 11.9126 6.02947 12.0024 6.33327 12.0021C6.63707 12.0018 6.93318 11.9115 7.18017 11.7439C7.42706 11.569 7.61472 11.3296 7.72013 11.0551L8.2696 9.45395C8.40139 9.07671 8.62436 8.73387 8.92072 8.45276C9.21708 8.17164 9.57864 7.96002 9.97657 7.83477L11.6962 7.30505C11.9846 7.20702 12.2332 7.02559 12.4069 6.78638C12.5805 6.54718 12.6705 6.26231 12.664 5.97203C12.6575 5.68174 12.5549 5.40073 12.3708 5.1687C12.1866 4.93666 11.9301 4.76535 11.6376 4.67896L9.94491 4.15974C9.54655 4.03504 9.18447 3.82383 8.88755 3.54296C8.59063 3.2621 8.36709 2.91935 8.23476 2.54207L7.6758 0.915393C7.57435 0.64677 7.38759 0.414529 7.14118 0.250609C6.89477 0.0866899 6.60082 -0.000855783 6.29976 1.25078e-05C5.9944 -0.00121901 5.69634 0.0885195 5.44772 0.256547C5.19909 0.424575 5.01247 0.662396 4.91423 0.936402L4.35051 2.57208C4.21814 2.93818 4.0001 3.27116 3.71272 3.5461C3.42535 3.82104 3.07607 4.03082 2.69104 4.15974L0.97456 4.68646C0.687806 4.7825 0.439807 4.96091 0.265124 5.19685C0.0904406 5.43279 -0.00222511 5.7145 4.05776e-05 6.00271C0.00230626 6.29092 0.0993903 6.57129 0.277764 6.80473C0.456137 7.03818 0.706913 7.21308 0.995145 7.30505L2.68471 7.82577C3.0836 7.95207 3.44597 8.16469 3.74309 8.44678C4.04021 8.72888 4.2639 9.07268 4.39643 9.45094L4.95381 11.0716C5.05357 11.3417 5.24042 11.5773 5.48744 11.7439M13.5156 17.7779C13.7302 17.9225 13.987 18.0001 14.2504 18C14.5162 17.9975 14.7747 17.9167 14.99 17.7688C15.2054 17.6209 15.3669 17.4133 15.4522 17.1747L15.8449 16.0312C15.9288 15.7941 16.0713 15.5765 16.2566 15.3994C16.4419 15.2223 16.6715 15.0888 16.9217 15.0108L18.1441 14.6326C18.3969 14.5504 18.6159 14.3946 18.7696 14.1874C18.9233 13.9801 19.0039 13.7321 18.9999 13.4789C18.9958 13.2256 18.9073 12.98 18.7471 12.7773C18.5868 12.5745 18.363 12.425 18.1077 12.3501L16.8979 11.9765C16.6478 11.8971 16.4204 11.7639 16.2337 11.5874C16.0469 11.4109 15.9057 11.1959 15.8212 10.9591L15.4221 9.79759C15.3363 9.55906 15.1734 9.35218 14.9565 9.20628C14.7397 9.06037 14.4799 8.98284 14.214 8.98466C13.9481 8.98649 13.6895 9.06758 13.4749 9.21645C13.2603 9.36532 13.1006 9.57441 13.0184 9.81409L12.6273 10.9576C12.5466 11.1926 12.4098 11.4069 12.2274 11.5836C12.045 11.7604 11.8221 11.8948 11.5759 11.9765L10.3471 12.3562C10.1611 12.4174 9.99274 12.519 9.85539 12.6527C9.71803 12.7864 9.61546 12.9486 9.55583 13.1265C9.49619 13.3044 9.48113 13.4929 9.51183 13.6773C9.54254 13.8616 9.61817 14.0366 9.73272 14.1884C9.88948 14.3985 10.1112 14.5561 10.3661 14.6386L11.5743 15.0093C11.8253 15.0894 12.0531 15.2237 12.24 15.4016C12.4269 15.5794 12.5676 15.796 12.6511 16.0342L13.0517 17.1957C13.1384 17.4305 13.3 17.6339 13.514 17.7779"/>
</mask>
<path d="M7.18017 11.7439L7.74178 12.5713L7.75005 12.5657L7.75821 12.5599L7.18017 11.7439ZM7.72013 11.0551L8.65367 11.4136L8.66014 11.3967L8.66599 11.3797L7.72013 11.0551ZM8.2696 9.45395L7.32554 9.12411L7.32374 9.12936L8.2696 9.45395ZM9.97657 7.83477L9.68218 6.87907L9.67634 6.88091L9.97657 7.83477ZM11.6962 7.30505L11.9906 8.26074L12.0044 8.25649L12.0181 8.25185L11.6962 7.30505ZM11.6376 4.67896L11.3444 5.63505L11.3544 5.638L11.6376 4.67896ZM9.94491 4.15974L9.64615 5.11409L9.65166 5.11578L9.94491 4.15974ZM8.23476 2.54207L7.28902 2.86705L7.29112 2.87304L8.23476 2.54207ZM7.6758 0.915393L8.62152 0.59042L8.61663 0.576187L8.61131 0.562108L7.6758 0.915393ZM6.29976 1.25078e-05L6.29573 1.00003L6.30265 1.00001L6.29976 1.25078e-05ZM4.91423 0.936402L3.97284 0.598861L3.9688 0.610573L4.91423 0.936402ZM4.35051 2.57208L5.29092 2.91212L5.29349 2.90504L5.29594 2.89791L4.35051 2.57208ZM2.69104 4.15974L2.9844 5.11575L2.99652 5.11203L3.00855 5.108L2.69104 4.15974ZM0.97456 4.68646L0.681201 3.73046L0.669048 3.73419L0.656994 3.73823L0.97456 4.68646ZM0.995145 7.30505L0.691132 8.25777L0.700619 8.26069L0.995145 7.30505ZM2.68471 7.82577L2.98657 6.87239L2.97923 6.87012L2.68471 7.82577ZM4.39643 9.45094L5.34209 9.12571L5.34018 9.12027L4.39643 9.45094ZM4.95381 11.0716L4.00818 11.3968L4.01184 11.4075L4.01575 11.4181L4.95381 11.0716ZM14.2504 18L14.2509 19L14.2599 19L14.2504 18ZM15.4522 17.1747L16.3939 17.5114L16.398 17.4995L15.4522 17.1747ZM15.8449 16.0312L14.9022 15.6975L14.8991 15.7064L15.8449 16.0312ZM16.9217 15.0108L16.6261 14.0554L16.6239 14.0561L16.9217 15.0108ZM18.1441 14.6326L18.4396 15.5879L18.4464 15.5858L18.4531 15.5836L18.1441 14.6326ZM18.1077 12.3501L17.8126 13.3056L17.8194 13.3077L17.8263 13.3097L18.1077 12.3501ZM16.8979 11.9765L16.5953 12.9296L16.6028 12.932L16.8979 11.9765ZM15.8212 10.9591L14.8753 11.284L14.8794 11.2952L15.8212 10.9591ZM15.4221 9.79759L16.3679 9.47267L16.3655 9.46579L16.363 9.45894L15.4221 9.79759ZM13.0184 9.81409L12.0725 9.48972L12.0722 9.49046L13.0184 9.81409ZM12.6273 10.9576L13.5732 11.2821L13.5735 11.2812L12.6273 10.9576ZM11.5759 11.9765L11.8711 12.9319L11.881 12.9289L11.8908 12.9256L11.5759 11.9765ZM10.3471 12.3562L10.0519 11.4007L10.043 11.4035L10.0342 11.4064L10.3471 12.3562ZM9.73272 14.1884L10.5342 13.5904L10.5309 13.586L9.73272 14.1884ZM10.3661 14.6386L10.0581 15.59L10.0654 15.5924L10.0728 15.5946L10.3661 14.6386ZM11.5743 15.0093L11.8786 14.0566L11.8676 14.0532L11.5743 15.0093ZM12.6511 16.0342L13.5964 15.7081L13.5948 15.7034L12.6511 16.0342ZM13.0517 17.1957L12.1063 17.5217L12.1099 17.532L12.1136 17.5422L13.0517 17.1957ZM5.48586 11.7454L4.92577 12.5738C5.34181 12.8551 5.83417 13.0025 6.33415 13.0021L6.33327 12.0021L6.33238 11.0021C6.22476 11.0022 6.12454 10.9701 6.04595 10.917L5.48586 11.7454ZM6.33327 12.0021L6.33415 13.0021C6.83414 13.0016 7.32624 12.8533 7.74178 12.5713L7.18017 11.7439L6.61857 10.9165C6.54012 10.9697 6.44001 11.002 6.33238 11.0021L6.33327 12.0021ZM7.18017 11.7439L7.75821 12.5599C8.16122 12.2744 8.47537 11.8779 8.65367 11.4136L7.72013 11.0551L6.78659 10.6966C6.75408 10.7813 6.69291 10.8636 6.60213 10.9279L7.18017 11.7439ZM7.72013 11.0551L8.66599 11.3797L9.21545 9.77853L8.2696 9.45395L7.32374 9.12936L6.77428 10.7305L7.72013 11.0551ZM8.2696 9.45395L9.21364 9.78377C9.29169 9.56037 9.42547 9.35229 9.60892 9.17828L8.92072 8.45276L8.23252 7.72724C7.82324 8.11546 7.5111 8.59306 7.32556 9.12412L8.2696 9.45395ZM8.92072 8.45276L9.60892 9.17828C9.79259 9.00406 10.0207 8.86926 10.2768 8.78864L9.97657 7.83477L9.67634 6.88091C9.1366 7.05079 8.64157 7.33923 8.23252 7.72724L8.92072 8.45276ZM9.97657 7.83477L10.271 8.79046L11.9906 8.26074L11.6962 7.30505L11.4018 6.34937L9.68218 6.87909L9.97657 7.83477ZM11.6962 7.30505L12.0181 8.25185C12.4958 8.08946 12.9171 7.78569 13.2161 7.37388L12.4069 6.78638L11.5976 6.19889C11.5493 6.26548 11.4734 6.32459 11.3744 6.35825L11.6962 7.30505ZM12.4069 6.78638L13.2161 7.37388C13.5157 6.96116 13.6752 6.46286 13.6637 5.94972L12.664 5.97203L11.6642 5.99433C11.6657 6.06176 11.6453 6.13321 11.5976 6.19889L12.4069 6.78638ZM12.664 5.97203L13.6637 5.94972C13.6523 5.43666 13.4708 4.94614 13.154 4.547L12.3708 5.1687L11.5875 5.79039C11.639 5.85532 11.6627 5.92683 11.6642 5.99433L12.664 5.97203ZM12.3708 5.1687L13.154 4.547C12.8379 4.14873 12.4046 3.86277 11.9209 3.71991L11.6376 4.67896L11.3544 5.638C11.4557 5.66792 11.5353 5.7246 11.5875 5.79039L12.3708 5.1687ZM11.6376 4.67896L11.9309 3.72292L10.2382 3.20371L9.94491 4.15974L9.65166 5.11578L11.3444 5.63499L11.6376 4.67896ZM9.94491 4.15974L10.2437 3.20541C9.98723 3.12514 9.75879 2.99058 9.57474 2.81649L8.88755 3.54296L8.20036 4.26944C8.61016 4.65708 9.10588 4.94494 9.64616 5.11407L9.94491 4.15974ZM8.88755 3.54296L9.57474 2.81649C9.39092 2.64261 9.25677 2.43456 9.1784 2.2111L8.23476 2.54207L7.29112 2.87304C7.4774 3.40414 7.79033 3.88159 8.20036 4.26944L8.88755 3.54296ZM8.23476 2.54207L9.18048 2.2171L8.62152 0.59042L7.6758 0.915393L6.73007 1.24037L7.28904 2.86704L8.23476 2.54207ZM7.6758 0.915393L8.61131 0.562108C8.43355 0.0913915 8.10997 -0.30597 7.69505 -0.581992L7.14118 0.250609L6.5873 1.08321C6.66519 1.13503 6.71516 1.20215 6.74028 1.26868L7.6758 0.915393ZM7.14118 0.250609L7.69505 -0.581992C7.28072 -0.857614 6.79237 -1.00141 6.29688 -0.999983L6.29976 1.25078e-05L6.30265 1.00001C6.40927 0.999701 6.50881 1.03099 6.5873 1.08321L7.14118 0.250609ZM6.29976 1.25078e-05L6.3038 -0.999979C5.80126 -1.00201 5.30599 -0.854629 4.88777 -0.571981L5.44772 0.256547L6.00767 1.08508C6.08669 1.03167 6.18754 0.999568 6.29573 1L6.29976 1.25078e-05ZM5.44772 0.256547L4.88777 -0.571981C4.46891 -0.288898 4.14522 0.118327 3.97291 0.598887L4.91423 0.936402L5.85555 1.27392C5.87973 1.20646 5.92928 1.13805 6.00767 1.08508L5.44772 0.256547ZM4.91423 0.936402L3.9688 0.610573L3.40508 2.24625L4.35051 2.57208L5.29594 2.89791L5.85966 1.26223L4.91423 0.936402ZM4.35051 2.57208L3.4101 2.23204C3.33132 2.44991 3.19988 2.6528 3.02143 2.82353L3.71272 3.5461L4.40402 4.26867C4.80032 3.88952 5.10495 3.42644 5.29092 2.91212L4.35051 2.57208ZM3.71272 3.5461L3.02143 2.82353C2.84277 2.99445 2.62188 3.12833 2.37353 3.21149L2.69104 4.15974L3.00855 5.108C3.53026 4.93331 4.00792 4.64763 4.40402 4.26867L3.71272 3.5461ZM2.69104 4.15974L2.39768 3.20374L0.681201 3.73046L0.97456 4.68646L1.26792 5.64246L2.9844 5.11575L2.69104 4.15974ZM0.97456 4.68646L0.656994 3.73823C0.182059 3.89728 -0.238029 4.19588 -0.538573 4.60181L0.265124 5.19685L1.06882 5.79189C1.11764 5.72595 1.19355 5.66771 1.29213 5.6347L0.97456 4.68646ZM0.265124 5.19685L-0.538573 4.60181C-0.839765 5.00862 -1.00393 5.50112 -0.999929 6.01057L4.05776e-05 6.00271L1.00001 5.99485C0.999483 5.92787 1.02065 5.85696 1.06882 5.79189L0.265124 5.19685ZM4.05776e-05 6.00271L-0.999929 6.01057C-0.995924 6.51999 -0.824058 7.00979 -0.516831 7.41187L0.277764 6.80473L1.07236 6.19759C1.02284 6.13279 1.00054 6.06185 1.00001 5.99485L4.05776e-05 6.00271ZM0.277764 6.80473L-0.516831 7.41187C-0.210261 7.8131 0.214064 8.10549 0.691147 8.25772L0.995145 7.30505L1.29914 6.35238C1.19976 6.32067 1.12253 6.26326 1.07236 6.19759L0.277764 6.80473ZM0.995145 7.30505L0.700619 8.26069L2.39018 8.78141L2.68471 7.82577L2.97923 6.87012L1.28967 6.34941L0.995145 7.30505ZM2.68471 7.82577L2.38285 8.77912C2.64041 8.86067 2.86977 8.99654 3.05456 9.17199L3.74309 8.44678L4.43162 7.72158C4.02218 7.33284 3.5268 7.04347 2.98656 6.87241L2.68471 7.82577ZM3.74309 8.44678L3.05456 9.17199C3.23913 9.34723 3.37388 9.55668 3.45269 9.78161L4.39643 9.45094L5.34018 9.12027C5.15392 8.58868 4.84129 8.11053 4.43162 7.72158L3.74309 8.44678ZM4.39643 9.45094L3.4508 9.77617L4.00818 11.3968L4.95381 11.0716L5.89945 10.7464L5.34207 9.12572L4.39643 9.45094ZM4.95381 11.0716L4.01575 11.4181C4.19061 11.8915 4.51359 12.2933 4.92836 12.573L5.48744 11.7439L6.04652 10.9148C5.96725 10.8613 5.91654 10.7919 5.89188 10.7252L4.95381 11.0716ZM13.5156 17.7779L12.9568 18.6072C13.3398 18.8652 13.792 19.0002 14.2509 19L14.2504 18L14.2498 17C14.1821 17 14.1207 16.9798 14.0744 16.9486L13.5156 17.7779ZM14.2504 18L14.2599 19C14.7208 18.9956 15.1738 18.8557 15.5561 18.5932L14.99 17.7688L14.424 16.9445C14.3757 16.9776 14.3117 16.9994 14.2408 17L14.2504 18ZM14.99 17.7688L15.5561 18.5932C15.9391 18.3301 16.2354 17.9544 16.3938 17.5113L15.4522 17.1747L14.5106 16.838C14.4983 16.8723 14.4716 16.9118 14.424 16.9445L14.99 17.7688ZM15.4522 17.1747L16.398 17.4995L16.7907 16.356L15.8449 16.0312L14.8991 15.7064L14.5064 16.8498L15.4522 17.1747ZM15.8449 16.0312L16.7876 16.3649C16.8174 16.2806 16.8715 16.195 16.9476 16.1223L16.2566 15.3994L15.5657 14.6765C15.2712 14.958 15.0402 15.3076 14.9022 15.6975L15.8449 16.0312ZM16.2566 15.3994L16.9476 16.1223C17.0172 16.0557 17.1108 15.9993 17.2194 15.9654L16.9217 15.0108L16.6239 14.0561C16.2321 14.1783 15.8665 14.389 15.5657 14.6765L16.2566 15.3994ZM16.9217 15.0108L17.2172 15.9661L18.4396 15.5879L18.1441 14.6326L17.8486 13.6773L16.6261 14.0554L16.9217 15.0108ZM18.1441 14.6326L18.4531 15.5836C18.8972 15.4394 19.2913 15.1626 19.5728 14.7831L18.7696 14.1874L17.9664 13.5916C17.9405 13.6266 17.8967 13.6615 17.8351 13.6815L18.1441 14.6326ZM18.7696 14.1874L19.5728 14.7831C19.8549 14.4027 20.0073 13.9405 19.9997 13.4629L18.9999 13.4789L18 13.4948C18.0004 13.5237 17.9917 13.5576 17.9664 13.5916L18.7696 14.1874ZM18.9999 13.4789L19.9997 13.4629C19.9921 12.9853 19.8251 12.5284 19.5316 12.1572L18.7471 12.7773L17.9626 13.3974C17.9896 13.4316 17.9995 13.4658 18 13.4948L18.9999 13.4789ZM18.7471 12.7773L19.5316 12.1572C19.2388 11.7868 18.8369 11.5219 18.3891 11.3906L18.1077 12.3501L17.8263 13.3097C17.8891 13.3282 17.9348 13.3623 17.9626 13.3974L18.7471 12.7773ZM18.1077 12.3501L18.4028 11.3947L17.193 11.021L16.8979 11.9765L16.6028 12.932L17.8126 13.3056L18.1077 12.3501ZM16.8979 11.9765L17.2005 11.0234C17.0907 10.9885 16.9955 10.9315 16.9205 10.8606L16.2337 11.5874L15.5469 12.3143C15.8454 12.5964 16.2049 12.8057 16.5953 12.9296L16.8979 11.9765ZM16.2337 11.5874L16.9205 10.8606C16.8456 10.7899 16.7933 10.7078 16.763 10.6229L15.8212 10.9591L14.8794 11.2952C15.0181 11.6839 15.2481 12.032 15.5469 12.3143L16.2337 11.5874ZM15.8212 10.9591L16.7669 10.6342L16.3679 9.47267L15.4221 9.79759L14.4764 10.1225L14.8754 11.284L15.8212 10.9591ZM15.4221 9.79759L16.363 9.45894C16.2028 9.01365 15.9023 8.63737 15.5148 8.37661L14.9565 9.20628L14.3983 10.0359C14.4444 10.067 14.4698 10.1045 14.4812 10.1362L15.4221 9.79759ZM14.9565 9.20628L15.5148 8.37661C15.1279 8.11629 14.6705 7.98151 14.2071 7.98469L14.214 8.98466L14.2209 9.98464C14.2893 9.98417 14.3515 10.0045 14.3983 10.0359L14.9565 9.20628ZM14.214 8.98466L14.2071 7.98469C13.7437 7.98787 13.2881 8.12893 12.9049 8.39482L13.4749 9.21645L14.0449 10.0381C14.0908 10.0062 14.1524 9.98511 14.2209 9.98464L14.214 8.98466ZM13.4749 9.21645L12.9049 8.39482C12.521 8.66115 12.226 9.04193 12.0725 9.48972L13.0184 9.81409L13.9643 10.1385C13.9752 10.1069 13.9996 10.0695 14.0449 10.0381L13.4749 9.21645ZM13.0184 9.81409L12.0722 9.49046L11.6811 10.6339L12.6273 10.9576L13.5735 11.2812L13.9646 10.1377L13.0184 9.81409ZM12.6273 10.9576L11.6814 10.633C11.6531 10.7157 11.6033 10.796 11.5315 10.8655L12.2274 11.5836L12.9233 12.3018C13.2163 12.0178 13.4402 11.6696 13.5732 11.2821L12.6273 10.9576ZM12.2274 11.5836L11.5315 10.8655C11.4595 10.9353 11.3676 10.992 11.261 11.0274L11.5759 11.9765L11.8908 12.9256C12.2766 12.7976 12.6306 12.5855 12.9233 12.3018L12.2274 11.5836ZM11.5759 11.9765L11.2807 11.0211L10.0519 11.4007L10.3471 12.3562L10.6423 13.3116L11.8711 12.9319L11.5759 11.9765ZM10.3471 12.3562L10.0342 11.4064C9.70713 11.5141 9.40641 11.6942 9.15782 11.9362L9.85539 12.6527L10.553 13.3692C10.5791 13.3438 10.6151 13.3207 10.66 13.3059L10.3471 12.3562ZM9.85539 12.6527L9.15782 11.9362C8.90901 12.1784 8.71909 12.4764 8.60771 12.8086L9.55583 13.1265L10.5039 13.4444C10.5118 13.4209 10.5271 13.3944 10.553 13.3692L9.85539 12.6527ZM9.55583 13.1265L8.60771 12.8086C8.49624 13.141 8.46772 13.4952 8.52542 13.8416L9.51183 13.6773L10.4982 13.513C10.4945 13.4907 10.4961 13.4677 10.5039 13.4444L9.55583 13.1265ZM9.51183 13.6773L8.52542 13.8416C8.58311 14.1879 8.7246 14.5126 8.9345 14.7908L9.73272 14.1884L10.5309 13.586C10.5117 13.5606 10.502 13.5353 10.4982 13.513L9.51183 13.6773ZM9.73272 14.1884L8.93125 14.7865C9.21485 15.1665 9.61074 15.4452 10.0581 15.59L10.3661 14.6386L10.6741 13.6872C10.6116 13.667 10.5641 13.6305 10.5342 13.5904L9.73272 14.1884ZM10.3661 14.6386L10.0728 15.5946L11.281 15.9653L11.5743 15.0093L11.8676 14.0532L10.6594 13.6826L10.3661 14.6386ZM11.5743 15.0093L11.27 15.9618C11.3802 15.997 11.4756 16.0545 11.5505 16.1259L12.24 15.4016L12.9295 14.6773C12.6307 14.3929 12.2704 14.1818 11.8786 14.0567L11.5743 15.0093ZM12.24 15.4016L11.5505 16.1259C11.6253 16.1971 11.6774 16.2796 11.7073 16.3649L12.6511 16.0342L13.5948 15.7034C13.4577 15.3124 13.2284 14.9618 12.9295 14.6773L12.24 15.4016ZM12.6511 16.0342L11.7057 16.3602L12.1063 17.5217L13.0517 17.1957L13.997 16.8696L13.5964 15.7081L12.6511 16.0342ZM13.0517 17.1957L12.1136 17.5422C12.2755 17.9803 12.5733 18.3503 12.9559 18.6076L13.514 17.7779L14.0722 16.9482C14.0266 16.9175 14.0013 16.8806 13.9897 16.8491L13.0517 17.1957Z" fill="#A4B1E4" mask="url(#path-1-inside-1_104_9386)"/>
</svg>
