<svg width="13" height="18" viewBox="0 0 13 18" fill="none" xmlns="http://www.w3.org/2000/svg">
<g opacity="0.75" clip-path="url(#clip0_155_251)">
<path d="M3.51417 3.22077C3.71844 3.05468 3.97957 2.97735 4.24021 3.00577C5.0978 3.09977 5.82087 3.40177 6.32633 3.87877C6.86146 4.38377 7.12457 5.06177 7.05236 5.74077C6.92476 6.93177 5.74273 8.02577 3.72585 7.80577C2.94145 7.72077 2.59228 7.97577 2.58041 8.09677C2.56656 8.21777 2.85441 8.54277 3.6388 8.62877C4.4964 8.72277 5.21947 9.02477 5.72492 9.50177C6.26005 10.0068 6.52515 10.6848 6.45096 11.3638C6.32336 12.5558 5.14132 13.6488 3.12642 13.4298C2.55469 13.3678 2.253 13.4868 2.1254 13.5638C2.02352 13.6268 1.98296 13.6878 1.97901 13.7218C1.96714 13.8418 2.25102 14.1668 3.0374 14.2528C3.29829 14.2813 3.5373 14.4134 3.70184 14.6201C3.86638 14.8267 3.94298 15.091 3.91478 15.3548C3.88658 15.6185 3.75589 15.8602 3.55147 16.0265C3.34704 16.1928 3.08563 16.2703 2.82473 16.2418C0.809829 16.0228 -0.116017 14.6998 0.011584 13.5068C0.139185 12.3138 1.32122 11.2218 3.3381 11.4418C3.90983 11.5048 4.20954 11.3848 4.33714 11.3078C4.44002 11.2458 4.48057 11.1848 4.48354 11.1508C4.49739 11.0298 4.21152 10.7048 3.42515 10.6188C1.41024 10.3988 0.484399 9.07677 0.611999 7.88377C0.7396 6.69077 1.92164 5.59777 3.93654 5.81977C4.50827 5.88177 4.80996 5.76177 4.93756 5.68477C5.03944 5.62277 5.08 5.56177 5.08395 5.52777C5.09582 5.40677 4.80996 5.08177 4.02556 4.99577C3.83084 4.97444 3.64678 4.89514 3.49668 4.76794C3.34659 4.64073 3.23723 4.47135 3.18246 4.28124C3.12769 4.09114 3.12997 3.88887 3.18903 3.70008C3.24808 3.51129 3.36124 3.34448 3.51417 3.22077Z" fill="#AA8CD9"/>
<path d="M11.0213 14C12.1139 14 12.9996 13.1046 12.9996 12C12.9996 10.8954 12.1139 10 11.0213 10C9.92869 10 9.04297 10.8954 9.04297 12C9.04297 13.1046 9.92869 14 11.0213 14Z" fill="#D6B3E5"/>
<path d="M6.57064 18C7.39008 18 8.05437 17.3284 8.05437 16.5C8.05437 15.6716 7.39008 15 6.57064 15C5.7512 15 5.08691 15.6716 5.08691 16.5C5.08691 17.3284 5.7512 18 6.57064 18Z" fill="#E5B3D2"/>
<path d="M8.54916 3C9.3686 3 10.0329 2.32843 10.0329 1.5C10.0329 0.671573 9.3686 0 8.54916 0C7.72972 0 7.06543 0.671573 7.06543 1.5C7.06543 2.32843 7.72972 3 8.54916 3Z" fill="#E5B3D2"/>
</g>
<defs>
<clipPath id="clip0_155_251">
<rect width="13" height="18" fill="white"/>
</clipPath>
</defs>
</svg>
