<svg width="40" height="40" viewBox="0 0 40 40" fill="none" xmlns="http://www.w3.org/2000/svg">
<path d="M5.83301 20.0002C5.83301 16.2429 7.32556 12.6396 9.98233 9.98282C12.6391 7.32605 16.2424 5.8335 19.9997 5.8335C23.7569 5.8335 27.3603 7.32605 30.017 9.98282C32.6738 12.6396 34.1663 16.2429 34.1663 20.0002C34.1663 23.7574 32.6738 27.3607 30.017 30.0175C27.3603 32.6743 23.7569 34.1668 19.9997 34.1668C16.2424 34.1668 12.6391 32.6743 9.98233 30.0175C7.32556 27.3607 5.83301 23.7574 5.83301 20.0002ZM19.9997 3.3335C10.7947 3.3335 3.33301 10.7952 3.33301 20.0002C3.33301 29.2052 10.7947 36.6668 19.9997 36.6668C29.2047 36.6668 36.6663 29.2052 36.6663 20.0002C36.6663 10.7952 29.2047 3.3335 19.9997 3.3335ZM19.988 11.0802C19.9448 10.7664 19.7842 10.4807 19.5385 10.2809C19.2928 10.081 18.9804 9.98187 18.6645 10.0035C18.3485 10.025 18.0525 10.1658 17.8363 10.3972C17.6201 10.6286 17.4998 10.9335 17.4997 11.2502V21.2502L17.5113 21.4202C17.5524 21.7194 17.7005 21.9937 17.9281 22.1922C18.1558 22.3908 18.4476 22.5001 18.7497 22.5002H25.4163L25.5863 22.4885C25.9001 22.4453 26.1858 22.2847 26.3856 22.039C26.5855 21.7933 26.6846 21.4809 26.6631 21.165C26.6415 20.849 26.5007 20.553 26.2693 20.3368C26.0379 20.1206 25.733 20.0003 25.4163 20.0002H19.9997V11.2502L19.988 11.0802Z" fill="#B3E5E0"/>
</svg>
