<svg width="200" height="200" viewBox="0 0 200 200" fill="none" xmlns="http://www.w3.org/2000/svg">
<rect width="200" height="200" rx="8" fill="#DDE0F8"/>
<path d="M81.5908 50.4716C81.5902 50.4716 81.5895 50.4716 81.5889 50.4716M81.5889 50.4716C81.5589 50.4719 81.5013 50.48 81.4184 50.4963M81.5889 50.4716C83.1804 50.2446 85.3776 50.0478 89.1793 50C91.597 50.0575 94.7079 50.229 96.5371 50.4388C98.916 50.7116 100.697 50.8046 102.586 51.9228C106.582 54.2878 109.451 56.5555 110.671 59.108C111.742 61.3513 113.205 65.3187 113.085 69.8825C113.001 73.0741 112.666 75.769 111.785 78.3389C110.961 80.7425 109.708 84.0367 107.599 86.9079C105.895 89.2276 103.623 92.5869 98.9977 94.4908L98.9736 94.5007C95.7984 95.8077 93.5662 96.7266 91.3922 96.8664C86.7154 97.1671 82.6359 97.4906 80.3947 96.776C77.6476 95.9 75.7543 95.1769 74.9583 94.6132C73.1409 93.3264 71 92.943 69.427 91.5457C67.9126 90.2005 65.0724 86.2697 64.448 80.5929C64.0087 76.5993 63.6715 72.7653 64.5438 69.1356C65.0755 66.9226 65.8498 63.9762 66.9424 61.8846C68.8093 58.3109 70.2973 55.9349 72.932 54.2787C73.6755 53.8114 74.4015 53.3944 75.097 53.0238M81.5889 50.4716C81.5313 50.4798 81.4745 50.488 81.4184 50.4963M81.4184 50.4963C81.2786 50.5239 81.0666 50.5751 80.7919 50.6527M81.4184 50.4963C81.3723 50.5032 81.3267 50.51 81.2815 50.5169C81.1542 50.5332 80.988 50.581 80.7919 50.6527M80.7919 50.6527C79.6934 50.9627 77.5922 51.6942 75.097 53.0238M80.7919 50.6527C79.3388 51.1835 76.2406 53.0209 75.097 53.0238M80.311 57.174C78.5076 58.3672 75.8497 60.2386 74.4824 62.6849C73.3533 64.7049 71.6981 68.4937 70.7725 71.5061C69.2232 76.5484 69.8452 79.5738 70.1739 80.9938C70.8683 83.9945 72.319 85.1616 73.475 86.6144C74.5156 87.9222 75.7837 89.0533 78.7521 90.2859C79.9197 90.7707 81.6148 90.8101 83.8119 90.8381C85.7956 90.8633 88.435 90.2119 91.9484 89.1486C95.8587 87.9651 98.0264 86.1575 98.9858 85.4204C101.641 83.3804 103.474 81.615 105.426 77.9534C107.37 74.3069 106.619 71.5932 105.77 69.1839C104.166 64.6307 102.659 63.8098 101.503 62.5205C99.9362 60.7735 96.7729 59.0964 94.7112 58.0561C90.1804 55.77 86.3823 56.2434 83.8367 56.4882C82.2505 56.8416 81.0236 57.0656 80.311 57.174ZM80.311 57.174C79.8709 57.2825 79.2714 57.499 78.3235 58.2155M78.6535 66.9258V67.1691C78.6535 67.5208 78.6535 68.2801 79.3074 71.3287C79.9614 74.3773 81.2693 79.6922 82.782 85.1682M88.0665 75.3074L89.7179 81.2238M95.8282 96.5081C95.8282 96.3996 96.3731 97.2115 97.6348 99.4211C99.3763 102.471 100.83 105.427 102.122 107.449C102.741 108.419 103.141 109.363 105.409 112.902C107.677 116.442 111.764 122.57 114.006 125.998C116.578 129.932 117.4 131.395 118.608 133.225C120.975 136.81 121.973 138.63 122.715 139.78C124.15 142.008 124.889 143.886 125.605 145.042C125.751 145.276 126.098 145.263 126.402 145.209C128.016 144.926 128.962 142.857 130.336 141.572C132.343 139.696 132.929 139.131 133.012 138.558C133.253 136.899 131.062 135.517 130.262 134.34C129.633 133.413 128.698 132.342 127.841 131.135C126.635 129.437 124.847 126.869 123.74 125.191C123.042 124.133 121.818 122.596 120.658 121.001C119.831 119.864 119.281 118.81 118.511 117.741C117.329 116.1 116.639 115.138 116.115 113.961C115.529 112.646 114.383 111.631 113.173 109.938C111.315 107.34 110.638 105.662 109.676 104.156C108.991 103.084 108.547 101.991 107.749 100.404C107.135 99.1843 106.457 97.8853 105.41 96.4046C104.526 94.5393 104.252 93.4989 103.923 92.8153C103.757 92.5112 103.593 92.2943 103.425 92.0708M126.874 145.812C127.362 146.625 129.235 148.928 130.173 149.754C130.38 149.936 130.612 150.081 130.943 149.948C132.836 149.185 133.747 146.916 134.851 145.951C135.105 145.73 135.454 145.542 135.65 145.295C136.406 144.339 135.847 142.587 134.832 140.506C134.528 140.009 134.255 139.629 134.006 139.325C133.757 139.021 133.539 138.804 133.314 138.416" stroke="#8189E4" stroke-width="2.5" stroke-linecap="round"/>
</svg>
