<svg width="200" height="200" viewBox="0 0 200 200" fill="none" xmlns="http://www.w3.org/2000/svg">
<rect width="200" height="200" rx="8" fill="#F4E1E9"/>
<path d="M119.428 73.7376C119.606 72.5106 119.053 70.3869 118.325 67.8831C117.597 65.3792 115.778 61.9278 113.866 59.2468C111.953 56.5658 107.546 53.82 104.196 51.4475C100.846 49.0749 96.6357 50.2398 93.6268 50.6423C90.6179 51.0447 86.5574 52.2593 83.6386 53.3725C80.7198 54.4857 77.0597 56.6707 73.6557 59.7942C70.2518 62.9176 70.2152 66.0352 69.7509 68.1779C69.2866 70.3206 69.1213 70.4398 68.4312 71.8253C67.741 73.2108 65.3196 70.2937 63.3931 68.7623C61.4665 67.231 59.125 67.2304 56.8085 66.6879C54.492 66.1453 52.2411 66.3308 49.7387 65.8946C47.2362 65.4583 44.1339 66.572 42.0457 67.0805C39.9574 67.5891 37.8354 68.6438 35.3749 69.7222C32.9145 70.8006 32.1099 72.315 29.8922 74.478C27.6745 76.641 26.4667 79.5517 25.5564 82.1887C24.6462 84.8257 24.1106 88.6849 24.0051 92.4936C23.8996 96.3022 25.4462 97.5862 26.6967 100.391C27.9472 103.195 29.4034 105.196 30.9384 108.367C32.4733 111.539 34.9138 114.373 37.3015 116.699C39.6892 119.026 43.8943 122.398 46.4941 124.283C49.094 126.168 52.7515 127.906 56.2622 130.144C59.773 132.382 68.7912 137.554 72.9159 140.187C77.0405 142.821 80.405 144.122 83.6174 146.141C86.8297 148.16 89.5936 149.331 90.251 149.495C90.9085 149.66 90.2361 150.767 91.4019 149.06C92.5677 147.354 94.9446 139.067 99.746 133.121C104.547 127.174 106.723 126.015 107.695 125.401M139.219 85.9553C141.857 81.1353 149.086 80.373 153.486 79.6447C157.887 78.9164 159.433 79.8571 162.817 80.6971C166.201 81.5371 169.395 83.5604 172.191 86.2448C174.988 88.9293 175.808 94.3081 175.956 96.6025C176.104 98.897 175.889 101.133 175.208 103.476C174.527 105.82 173.439 108.544 171.897 112.373C170.355 116.202 166.451 119.411 164.736 121.328C163.02 123.246 161.091 124.897 158.422 126.483C155.752 128.07 155.478 128.261 152.76 131.111C150.041 133.96 143.997 138.492 141.405 140.848C138.812 143.204 137.445 144.151 135.743 145.392C134.041 146.634 132.144 148.614 131.102 149.273C130.06 149.932 131.123 149.929 129.82 149.366C128.517 148.802 125.846 145.102 123.898 143.2C121.951 141.299 120.702 139.551 119.388 137.999C118.073 136.447 115.86 134.939 113.38 132.581C110.899 130.223 108.479 125.887 106.404 122.115C104.329 118.342 103.463 115.337 102.168 111.653C100.872 107.968 100.247 107.215 99.8103 101.028C99.3733 94.8401 99.9096 88.0783 101.301 85.6908C102.692 83.3034 106.573 78.1644 110.398 76.0775C114.223 73.9906 117.473 74.1746 120.214 74.5293C122.954 74.884 130.847 77.7716 134.483 81.3013C138.12 84.831 137.449 85.379 138.692 87.2803" stroke="#D88DAE" stroke-width="2.5" stroke-linecap="round"/>
</svg>
