<svg width="32" height="32" viewBox="0 0 32 32" fill="none" xmlns="http://www.w3.org/2000/svg">
<path d="M12.7324 5.49621C12.6022 5.49727 12.4711 5.51558 12.3397 5.55083C11.4991 5.77633 11.0015 6.64646 11.2284 7.49421C11.3149 7.81746 11.4931 8.08921 11.7284 8.29108C9.73775 9.25646 8.38475 11.1143 8.02338 13.2111L6.61512 13.6856C5.91294 13.5058 5.27662 13.4231 4.707 13.4297C3.7885 13.4401 3.04137 13.681 2.46275 14.1153C1.30537 14.9838 1.0055 16.4916 1.24212 17.9063C1.47862 19.321 2.23025 20.7267 3.38856 21.6153C4.54681 22.5038 6.18325 22.8003 7.82794 21.92C8.10481 21.7716 8.37644 21.6193 8.62875 21.4843C8.81581 22.1576 9.50487 22.5568 10.1756 22.3768C10.8164 22.205 11.2098 21.5666 11.0916 20.92C12.1531 21.5481 13.2476 21.8996 14.3532 22.0078C13.4724 23.3136 12.3335 24.4809 10.9801 25.4315C12.7147 27.1644 25.0279 23.8782 25.3317 21.582C23.6511 21.4268 22.0489 20.9611 20.6091 20.2343C24.8588 17.4854 28.6501 11.905 30.6501 5.57415L27.9957 6.47065C25.2389 10.6777 20.3574 12.9588 17.5486 8.22065C16.5128 7.74399 15.3732 7.53771 14.2361 7.62108C14.3396 7.32796 14.3579 7.00152 14.2713 6.67777C14.0799 5.96258 13.4343 5.4904 12.7322 5.49615L12.7324 5.49621ZM4.75375 14.5957C5.07312 14.594 5.43281 14.6276 5.83575 14.7051C7.00175 17.0006 8.29262 18.7012 9.66 19.8829C9.61206 19.89 9.56337 19.8993 9.51544 19.9123C9.50627 19.9147 9.49715 19.9173 9.48806 19.92C9.31019 19.9403 9.13881 19.9853 8.97444 20.041C8.37194 20.2454 7.80381 20.6088 7.27719 20.8906C5.98625 21.5816 4.96781 21.3538 4.09944 20.6875C3.231 20.0213 2.58344 18.8438 2.39444 17.7129C2.20525 16.582 2.45369 15.5818 3.16381 15.0488C3.519 14.7824 4.03531 14.5997 4.75375 14.5957Z" fill="#C74FEF"/>
</svg>
