<svg width="32" height="32" viewBox="0 0 32 32" fill="none" xmlns="http://www.w3.org/2000/svg">
<path fill-rule="evenodd" clip-rule="evenodd" d="M16.1297 5.7133C17.6006 4.37771 19.5309 3.63418 21.5361 3.63086C23.7036 3.63086 25.7732 4.5047 27.2877 6.04315C28.7948 7.58283 29.6343 9.63506 29.6299 11.7686C29.6343 13.9022 28.7948 15.9545 27.2877 17.4941C26.2881 18.5095 25.2897 19.5495 24.2863 20.5932C22.2469 22.715 20.186 24.8602 18.0449 26.8799L18.0411 26.8848C17.5094 27.3782 16.8006 27.6461 16.0686 27.6302C15.3366 27.6143 14.6405 27.3159 14.1317 26.7999L4.97043 17.4941C1.8497 14.3225 1.8497 9.21481 4.97043 6.04438C6.41288 4.56305 8.39241 3.69781 10.4808 3.63585C12.5692 3.5739 14.5985 4.3202 16.1297 5.7133Z" fill="#E06F6C"/>
</svg>
