<svg width="32" height="32" viewBox="0 0 32 32" fill="none" xmlns="http://www.w3.org/2000/svg">
<path d="M6.66667 23.6654V18.6441L12.08 22.1814C13.2459 22.9422 14.6079 23.3472 16 23.3472C17.3921 23.3472 18.7541 22.9422 19.92 22.1814L25.3333 18.6441V23.6654C25.3333 23.8818 25.2632 24.0923 25.1333 24.2654L25.132 24.2681L25.1307 24.2694L25.1267 24.2748L25.1147 24.2881L25.0987 24.3094L25.0813 24.3321L24.9667 24.4668C24.8326 24.6198 24.6915 24.7666 24.544 24.9068C24.1747 25.2628 23.624 25.7254 22.8773 26.1841C21.3813 27.1041 19.1173 27.9988 16 27.9988C12.8827 27.9988 10.6187 27.1054 9.12133 26.1841C8.52199 25.8192 7.96327 25.3915 7.45467 24.9081C7.25206 24.7141 7.06191 24.5074 6.88533 24.2894L6.87333 24.2761L6.86933 24.2694V24.2668C6.73941 24.0936 6.66839 23.8819 6.66667 23.6654ZM29.5467 13.5041L18.8267 20.5081C17.9859 21.0566 17.0038 21.3486 16 21.3486C14.9962 21.3486 14.0141 21.0566 13.1733 20.5081L4 14.5134V21.6654C4 21.9306 3.89464 22.185 3.70711 22.3725C3.51957 22.5601 3.26522 22.6654 3 22.6654C2.73478 22.6654 2.48043 22.5601 2.29289 22.3725C2.10536 22.185 2 21.9306 2 21.6654V13.3321C2 13.2139 2.01911 13.1028 2.05733 12.9988C1.98224 12.7862 1.98116 12.5546 2.05425 12.3414C2.12734 12.1281 2.27032 11.9459 2.46 11.8241L13.212 4.93077C14.0444 4.39824 15.0119 4.11523 16 4.11523C16.9881 4.11523 17.9556 4.39824 18.788 4.93077L29.54 11.8241C29.6804 11.9143 29.7961 12.0381 29.8764 12.1844C29.9566 12.3307 29.9991 12.4947 29.9997 12.6616C30.0004 12.8285 29.9593 12.9929 29.8801 13.1398C29.801 13.2867 29.6864 13.4115 29.5467 13.5028" fill="#7D1EC6"/>
</svg>
