<svg width="40" height="40" viewBox="0 0 40 40" fill="none" xmlns="http://www.w3.org/2000/svg">
<path d="M4 12C4 10.9391 4.42143 9.92172 5.17157 9.17157C5.92172 8.42143 6.93913 8 8 8H32C33.0609 8 34.0783 8.42143 34.8284 9.17157C35.5786 9.92172 36 10.9391 36 12V26C36 27.0609 35.5786 28.0783 34.8284 28.8284C34.0783 29.5786 33.0609 30 32 30H8C6.93913 30 5.92172 29.5786 5.17157 28.8284C4.42143 28.0783 4 27.0609 4 26V12ZM8 10C7.46957 10 6.96086 10.2107 6.58579 10.5858C6.21071 10.9609 6 11.4696 6 12V26C6 26.5304 6.21071 27.0391 6.58579 27.4142C6.96086 27.7893 7.46957 28 8 28H32C32.5304 28 33.0391 27.7893 33.4142 27.4142C33.7893 27.0391 34 26.5304 34 26V12C34 11.4696 33.7893 10.9609 33.4142 10.5858C33.0391 10.2107 32.5304 10 32 10H8ZM10 33C10 32.7348 10.1054 32.4804 10.2929 32.2929C10.4804 32.1054 10.7348 32 11 32H29C29.2652 32 29.5196 32.1054 29.7071 32.2929C29.8946 32.4804 30 32.7348 30 33C30 33.2652 29.8946 33.5196 29.7071 33.7071C29.5196 33.8946 29.2652 34 29 34H11C10.7348 34 10.4804 33.8946 10.2929 33.7071C10.1054 33.5196 10 33.2652 10 33Z" fill="#CCD3F0"/>
</svg>
