<svg width="32" height="32" viewBox="0 0 32 32" fill="none" xmlns="http://www.w3.org/2000/svg">
<path d="M16.1945 22.1282C16.3219 22.2512 16.4234 22.3983 16.4933 22.561C16.5632 22.7236 16.6 22.8986 16.6015 23.0756C16.603 23.2527 16.5693 23.4283 16.5023 23.5921C16.4352 23.756 16.3362 23.9048 16.211 24.03C16.0858 24.1552 15.937 24.2542 15.7731 24.3213C15.6092 24.3883 15.4337 24.422 15.2566 24.4205C15.0796 24.419 14.9046 24.3822 14.742 24.3123C14.5793 24.2424 14.4322 24.1409 14.3092 24.0135L12.4238 22.1282L8.65317 25.9002C8.90318 26.1504 9.04357 26.4896 9.04344 26.8433C9.04332 27.197 8.90269 27.5362 8.6525 27.7862C8.40232 28.0362 8.06306 28.1766 7.70937 28.1764C7.35567 28.1763 7.01652 28.0357 6.7665 27.7855L4.88117 25.9002C4.63098 25.6502 4.49036 25.311 4.49023 24.9573C4.49011 24.6036 4.63049 24.2644 4.8805 24.0142C5.13052 23.764 5.46967 23.6234 5.82337 23.6232C6.17706 23.6231 6.51632 23.7635 6.7665 24.0135L10.5385 20.2428L8.65317 18.3575C8.41029 18.106 8.2759 17.7692 8.27894 17.4196C8.28198 17.07 8.4222 16.7356 8.66941 16.4884C8.91662 16.2412 9.25104 16.101 9.60064 16.0979C9.95023 16.0949 10.287 16.2293 10.5385 16.4722L16.1945 22.1282ZM17.1385 21.1855L11.4798 15.5282L22.7945 4.21484L27.5092 5.15751L28.4518 9.87218L17.1385 21.1855Z" fill="#1E2306"/>
</svg>
