<svg width="32" height="32" viewBox="0 0 32 32" fill="none" xmlns="http://www.w3.org/2000/svg">
<path fill-rule="evenodd" clip-rule="evenodd" d="M16.1309 5.71426C17.5723 4.37855 19.464 3.63488 21.4292 3.6314C23.5535 3.63124 25.5818 4.50493 27.0662 6.04326C28.5434 7.58283 29.3663 9.635 29.362 11.7686C29.3666 13.9022 28.544 15.9545 27.0671 17.4942C26.0875 18.5097 25.1091 19.5498 24.1258 20.5935C22.1272 22.7155 20.1077 24.8609 18.0094 26.8807L18.0057 26.8856C17.4848 27.3791 16.7901 27.647 16.0727 27.6311C15.3553 27.6153 14.6731 27.317 14.1744 26.801L5.19528 17.4959C2.1366 14.3245 2.13621 9.21684 5.1944 6.04617C6.60795 4.56473 8.5479 3.69935 10.5946 3.63723C12.6413 3.57512 14.6301 4.32126 16.1309 5.71426Z" fill="#EF4F93"/>
</svg>
