<svg width="32" height="32" viewBox="0 0 32 32" fill="none" xmlns="http://www.w3.org/2000/svg">
<path d="M21.8019 4.03027C22.4146 4.03008 23.0047 4.25876 23.454 4.67047C23.9033 5.08218 24.1784 5.64649 24.2244 6.25027L24.2305 6.43027V8.83027C24.2307 10.2797 23.8513 11.7045 23.1294 12.9662C22.4074 14.2278 21.3674 15.2834 20.1104 16.0303C21.3195 16.7486 22.3286 17.7531 23.0468 18.953C23.765 20.153 24.1697 21.5108 24.2244 22.9039L24.2305 23.2303V25.6303C24.2307 26.2358 23.9993 26.819 23.5827 27.2629C23.166 27.7069 22.595 27.9789 21.984 28.0243L21.8019 28.0303H9.65904C9.04634 28.0305 8.45621 27.8018 8.00695 27.3901C7.55768 26.9784 7.28249 26.4141 7.23654 25.8103L7.23047 25.6303V23.2303C7.23029 21.7809 7.60962 20.356 8.33158 19.0944C9.05354 17.8327 10.0936 16.7771 11.3505 16.0303C10.1415 15.3119 9.13232 14.3075 8.41411 13.1075C7.6959 11.9075 7.29121 10.5498 7.23654 9.15667L7.23047 8.83027V6.43027C7.23027 5.82478 7.46168 5.24159 7.87829 4.79762C8.2949 4.35364 8.86592 4.08169 9.4769 4.03627L9.65904 4.03027L21.8019 4.03027Z" fill="#F49C71"/>
</svg>
