<svg width="32" height="32" viewBox="0 0 32 32" fill="none" xmlns="http://www.w3.org/2000/svg">
<path d="M7.34713 5.69619C8.07862 5.65332 8.81209 5.65689 9.54313 5.70685C10.4818 5.78019 11.6205 5.97885 12.3765 6.58685C13.4125 7.36819 13.9391 8.56952 14.0485 9.75219C14.1378 10.7013 13.9624 11.6567 13.5418 12.5122C14.0218 13.1389 14.4311 13.9069 14.7765 14.6855C15.2485 15.7495 15.6445 16.9349 15.9658 18.0335C16.0951 17.6469 16.2431 17.2575 16.4085 16.8815C16.6565 16.3162 16.9605 15.7509 17.3325 15.2509C16.4925 13.4882 17.1258 11.3602 18.6925 10.2282C19.3631 9.71352 20.3205 9.54019 21.0978 9.47219C21.9079 9.41219 22.7213 9.41398 23.5311 9.47752L23.7751 9.50952C24.8885 9.71352 25.6245 10.7295 25.5578 11.8335L25.5311 12.0709C25.4042 12.8811 25.2152 13.6803 24.9658 14.4615C24.7125 15.2215 24.3125 16.1362 23.6458 16.6682C22.2098 17.8869 20.1445 17.8069 18.6858 16.8149C18.5302 17.0726 18.3814 17.3633 18.2391 17.6869C17.9365 18.3996 17.6909 19.1353 17.5045 19.8869C17.3739 20.4072 17.2618 20.9319 17.1685 21.4602C20.3898 21.5535 23.4991 22.6335 26.3685 23.8322L27.7338 24.4175L27.8245 24.4629C28.0396 24.5846 28.202 24.7816 28.2804 25.016C28.3588 25.2503 28.3476 25.5054 28.249 25.732C28.1505 25.9587 27.9715 26.1408 27.7466 26.2432C27.5217 26.3457 27.2668 26.3612 27.0311 26.2869L26.9338 26.2509L25.5805 25.6709C22.6431 24.4442 19.7005 23.4509 16.7378 23.4495L16.0525 23.4682H15.9485C12.2978 23.2762 8.67913 24.6775 5.06713 26.2509C4.82402 26.3569 4.54872 26.3621 4.30179 26.2652C4.05487 26.1683 3.85655 25.9773 3.75046 25.7342C3.64438 25.4911 3.63921 25.2158 3.73611 24.9688C3.833 24.7219 4.02402 24.5236 4.26713 24.4175C7.48713 23.0149 11.0565 21.5829 14.7738 21.4629C14.5674 20.5182 14.3308 19.5804 14.0645 18.6509C13.7623 17.5763 13.3895 16.5229 12.9485 15.4975C12.737 15.0118 12.4897 14.5425 12.2085 14.0935C10.5711 15.2669 8.3418 15.0029 6.81246 13.6495C6.08313 13.0429 5.63913 12.0015 5.35513 11.1149C5.1333 10.4086 4.95694 9.68895 4.82713 8.96019L4.72046 8.32952C4.52046 7.06285 5.39513 5.84685 6.7178 5.74019L7.34713 5.69619Z" fill="#4DC077"/>
</svg>
