<svg width="20" height="20" viewBox="0 0 20 20" fill="none" xmlns="http://www.w3.org/2000/svg">
<g clip-path="url(#clip0_171_514)">
<path d="M8.74472 2.23343C8.77873 2.05135 8.87534 1.88691 9.01783 1.76857C9.16032 1.65023 9.33971 1.58545 9.52494 1.58545C9.71016 1.58545 9.88955 1.65023 10.032 1.76857C10.1745 1.88691 10.2711 2.05135 10.3052 2.23343L11.1393 6.64487C11.1986 6.9585 11.351 7.24699 11.5767 7.47268C11.8024 7.69838 12.0909 7.85079 12.4045 7.91004L16.816 8.74423C16.998 8.77824 17.1625 8.87485 17.2808 9.01734C17.3992 9.15983 17.4639 9.33922 17.4639 9.52445C17.4639 9.70967 17.3992 9.88906 17.2808 10.0316C17.1625 10.174 16.998 10.2707 16.816 10.3047L12.4045 11.1389C12.0909 11.1981 11.8024 11.3505 11.5767 11.5762C11.351 11.8019 11.1986 12.0904 11.1393 12.404L10.3052 16.8155C10.2711 16.9975 10.1745 17.162 10.032 17.2803C9.88955 17.3987 9.71016 17.4634 9.52494 17.4634C9.33971 17.4634 9.16032 17.3987 9.01783 17.2803C8.87534 17.162 8.77873 16.9975 8.74472 16.8155L7.91053 12.404C7.85128 12.0904 7.69887 11.8019 7.47317 11.5762C7.24748 11.3505 6.95899 11.1981 6.64536 11.1389L2.23392 10.3047C2.05184 10.2707 1.8874 10.174 1.76906 10.0316C1.65072 9.88906 1.58594 9.70967 1.58594 9.52445C1.58594 9.33922 1.65072 9.15983 1.76906 9.01734C1.8874 8.87485 2.05184 8.77824 2.23392 8.74423L6.64536 7.91004C6.95899 7.85079 7.24748 7.69838 7.47317 7.47268C7.69887 7.24699 7.85128 6.9585 7.91053 6.64487L8.74472 2.23343Z" stroke="#EF4F93" stroke-width="1.58742" stroke-linecap="round" stroke-linejoin="round"/>
<path d="M15.874 1.5874V4.76224" stroke="#EF4F93" stroke-width="1.58742" stroke-linecap="round" stroke-linejoin="round"/>
<path d="M17.4619 3.1748L14.2871 3.1748" stroke="#EF4F93" stroke-width="1.58742" stroke-linecap="round" stroke-linejoin="round"/>
<path d="M3.17531 17.4615C4.05202 17.4615 4.76273 16.7507 4.76273 15.874C4.76273 14.9973 4.05202 14.2866 3.17531 14.2866C2.2986 14.2866 1.58789 14.9973 1.58789 15.874C1.58789 16.7507 2.2986 17.4615 3.17531 17.4615Z" stroke="#EF4F93" stroke-width="1.58742" stroke-linecap="round" stroke-linejoin="round"/>
</g>
<defs>
<clipPath id="clip0_171_514">
<rect width="19.049" height="19.049" fill="white"/>
</clipPath>
</defs>
</svg>
