<svg width="32" height="32" viewBox="0 0 32 32" fill="none" xmlns="http://www.w3.org/2000/svg">
<path d="M20.2196 20.776C26.3356 15.3453 31.0742 8.21063 28.2956 5.0813C27.4142 4.0893 26.1836 3.6293 24.8622 3.77063C23.7529 3.89197 22.6129 4.43997 21.4636 5.35997C19.6569 4.42371 17.6403 3.96665 15.6065 4.03248C13.5727 4.09831 11.5899 4.68484 9.84757 5.73597C8.49319 6.53811 7.31151 7.60113 6.37105 8.86339C5.43059 10.1257 4.75006 11.562 4.3689 13.0893C3.77585 15.442 3.91825 17.92 4.7769 20.1893C3.3569 21.7933 2.03823 25.092 3.67957 26.94C4.3689 27.7146 5.35557 28.0613 6.54223 28.0613C10.1516 28.0613 15.6196 24.8626 20.2196 20.776ZM25.1516 6.41997C25.6289 6.37463 25.9942 6.5053 26.2996 6.85063C26.6076 7.19863 26.5249 8.11197 25.9636 9.42263C25.3613 8.5043 24.6359 7.67299 23.8076 6.95197C24.3822 6.60263 24.8422 6.45463 25.1516 6.41997ZM6.1769 22.824C6.77003 23.6837 7.47286 24.4622 8.26757 25.14C6.9009 25.544 5.98223 25.5173 5.67423 25.168C5.3849 24.844 5.6769 23.7426 6.1769 22.824ZM27.9236 14.9986C26.3036 17.3946 24.0489 19.8933 21.5529 22.1093C18.9742 24.4013 16.1316 26.3866 13.4862 27.712C14.3069 27.8934 15.1444 27.9882 15.9849 27.9946C18.1532 27.9914 20.2801 27.4007 22.1396 26.2853C24.0714 25.1425 25.64 23.4759 26.6637 21.4784C27.6873 19.4808 28.1242 17.2342 27.9236 14.9986Z" fill="#4F64EF"/>
</svg>
