<svg width="323" height="5" viewBox="0 0 323 5" fill="none" xmlns="http://www.w3.org/2000/svg">
<path d="M317.625 1.47717C318.307 1.47708 318.989 1.55017 319.666 1.68232C320.252 1.79682 320.587 1.82643 320.732 1.82168L321.038 1.79343L321.124 1.78866L321.218 1.79198C321.77 1.79307 322.223 2.2446 322.222 2.79688C322.22 3.34784 321.768 3.79385 321.217 3.79321L321.194 3.79238L320.888 3.81283L320.154 3.78685C319.887 3.75571 319.594 3.69927 319.284 3.63878C318.731 3.53089 318.176 3.47833 317.625 3.4784C317.07 3.47869 316.513 3.52948 315.954 3.63033C315.324 3.7441 314.691 3.84676 314.059 3.93848C313.38 4.03712 312.697 4.07878 312.015 4.05372C311.422 4.03199 310.828 4.03359 310.232 4.06096C309.524 4.09353 308.816 4.03725 308.112 3.89208C307.627 3.79183 307.139 3.79335 306.65 3.90286C305.918 4.06618 305.179 4.1074 304.441 4.0279C303.844 3.96369 303.245 3.9274 302.647 3.91748C301.985 3.90645 301.322 3.86052 300.658 3.78453C300.081 3.71856 299.502 3.70028 298.924 3.73098C298.283 3.76504 297.641 3.79229 296.998 3.81132C296.34 3.83082 295.68 3.82962 295.021 3.80385C294.454 3.78178 293.884 3.81472 293.313 3.90755C292.562 4.0298 291.806 4.02715 291.054 3.89013C290.427 3.77537 289.795 3.67266 289.166 3.58092C288.55 3.49129 287.928 3.42051 287.312 3.38241C286.813 3.35208 286.304 3.42531 285.78 3.60958C285.043 3.86932 284.291 4.02117 283.536 4.0461C282.762 4.07146 281.991 3.9505 281.235 3.69102C280.793 3.53969 280.367 3.52989 279.922 3.67581C279.108 3.94339 278.276 3.99897 277.447 3.82269C276.895 3.70519 276.341 3.67645 275.793 3.73286C275.056 3.8083 274.318 3.78824 273.582 3.67806C273.003 3.5914 272.424 3.56987 271.841 3.61641C271.121 3.67412 270.398 3.6645 269.677 3.58669C269.054 3.51936 268.427 3.49212 267.804 3.49693C267.11 3.50225 266.413 3.46888 265.72 3.40751C265.194 3.36146 264.662 3.41815 264.119 3.58535C263.26 3.85013 262.383 3.84709 261.523 3.57946C260.964 3.40549 260.413 3.33701 259.866 3.36443C259.196 3.39814 258.524 3.4304 257.853 3.46516C257.209 3.49859 256.562 3.56201 255.916 3.64673C255.216 3.73844 254.516 3.80094 253.814 3.8303C253.103 3.86002 252.389 3.84441 251.674 3.7936C250.977 3.74406 250.276 3.67583 249.578 3.58652C248.934 3.5041 248.289 3.45731 247.645 3.43989C247.062 3.42417 246.472 3.48956 245.879 3.64315C245.066 3.85312 244.242 3.89162 243.42 3.75936C242.78 3.6565 242.138 3.59353 241.495 3.57397C240.761 3.55166 240.023 3.47957 239.291 3.3552C238.726 3.25978 238.162 3.26904 237.594 3.38111C236.831 3.53182 236.063 3.5918 235.297 3.56557C234.589 3.54118 233.873 3.5 233.159 3.43518C232.574 3.38228 231.983 3.42743 231.388 3.5679C230.508 3.77486 229.623 3.72979 228.758 3.44352C228.221 3.26591 227.697 3.23584 227.174 3.34056C226.397 3.496 225.615 3.55458 224.831 3.51556C224.179 3.48315 223.525 3.49332 222.867 3.55549C222.105 3.62768 221.338 3.63353 220.576 3.576C219.933 3.52759 219.289 3.5402 218.644 3.60922C217.8 3.6997 216.956 3.61374 216.128 3.36379C215.52 3.18075 214.914 3.09496 214.308 3.10391C213.587 3.11501 212.862 3.12555 212.142 3.12104C211.469 3.11682 210.794 3.14951 210.121 3.2293C209.415 3.31292 208.705 3.41022 208 3.51381C207.242 3.62493 206.477 3.68275 205.711 3.69075C204.871 3.69911 204.038 3.55631 203.216 3.2741C202.692 3.09387 202.182 3.08478 201.662 3.24252C200.808 3.50154 199.942 3.57666 199.074 3.46361C198.387 3.37404 197.695 3.32514 197.001 3.30419C196.285 3.28266 195.563 3.26965 194.844 3.27475C194.097 3.28001 193.347 3.27291 192.602 3.24226C191.937 3.21518 191.271 3.25007 190.604 3.35135C189.762 3.47917 188.917 3.45996 188.073 3.30083C187.4 3.1735 186.723 3.11077 186.047 3.11185C185.315 3.11318 184.581 3.12028 183.85 3.13567C183.096 3.15158 182.336 3.15314 181.583 3.13359C180.827 3.11391 180.067 3.07131 179.305 3.00603C178.622 2.94753 177.936 2.95227 177.248 3.01922C176.534 3.08887 175.818 3.19175 175.103 3.33413C174.267 3.50074 173.427 3.54821 172.588 3.47963C171.863 3.42032 171.132 3.38421 170.396 3.36292C169.67 3.34198 168.941 3.34804 168.214 3.3873C167.428 3.42985 166.637 3.43541 165.853 3.40532C165.101 3.3765 164.347 3.35235 163.596 3.32544C162.837 3.2982 162.071 3.26519 161.302 3.22075C160.516 3.17536 159.732 3.09653 158.949 2.99673C158.228 2.90482 157.506 2.86008 156.788 2.8577C156.087 2.8554 155.381 2.91264 154.671 3.03291C153.862 3.17008 153.047 3.2544 152.231 3.28267C151.381 3.31207 150.532 3.23796 149.69 3.06764C148.977 2.92346 148.266 2.83928 147.557 2.81233C146.8 2.78365 146.033 2.76026 145.261 2.74668C144.505 2.73337 143.747 2.74703 142.993 2.78363C142.219 2.82122 141.446 2.86465 140.675 2.90481C139.876 2.94642 139.071 2.95009 138.266 2.92898C137.482 2.90835 136.689 2.8852 135.9 2.85303C135.118 2.82113 134.337 2.79279 133.558 2.7623C132.816 2.73326 132.073 2.74455 131.329 2.80063C130.521 2.86153 129.705 2.88904 128.887 2.88616C128.11 2.88346 127.336 2.89775 126.564 2.92898C125.697 2.96403 124.834 2.89744 123.975 2.72791C123.298 2.59396 122.609 2.56788 121.914 2.65493C121.046 2.76353 120.18 2.77877 119.317 2.7037C118.624 2.64321 117.927 2.69287 117.233 2.84098C116.355 3.02818 115.464 3.09087 114.568 3.03588C113.769 2.98688 112.972 2.94466 112.18 2.91226C111.379 2.87946 110.58 2.84495 109.784 2.80397C109.008 2.76403 108.22 2.74252 107.425 2.74392C106.642 2.74532 105.861 2.7832 105.084 2.84865C104.169 2.92591 103.252 2.84784 102.348 2.62671C101.621 2.44895 100.885 2.35471 100.146 2.34548C99.4144 2.33659 98.6851 2.42203 97.9558 2.59628C97.0833 2.80483 96.2054 2.92623 95.3242 2.95652C94.4081 2.98802 93.4935 2.87784 92.584 2.63281C91.9406 2.45945 91.3111 2.46305 90.6762 2.64344C89.706 2.9192 88.7198 2.94505 87.7339 2.72689C86.9804 2.56023 86.2328 2.48055 85.4911 2.48332C84.7116 2.4864 83.9295 2.53981 83.1483 2.6349C82.2559 2.74353 81.3583 2.75167 80.4581 2.66473C79.6331 2.58506 78.8143 2.514 78.0034 2.44493C77.2973 2.38486 76.5753 2.43426 75.8324 2.60259C74.8656 2.82193 73.8965 2.84244 72.9378 2.66428C72.1788 2.52289 71.4105 2.45389 70.6389 2.45781C69.847 2.462 69.0515 2.51611 68.2644 2.6239C67.3228 2.75252 66.3789 2.72824 65.4375 2.53945C64.6723 2.38598 63.907 2.31059 63.1467 2.32546C62.2942 2.34206 61.4397 2.33908 60.5834 2.30506C59.7295 2.27111 58.8759 2.21096 58.0252 2.13632C57.3159 2.07407 56.5945 2.14335 55.8601 2.34891C54.8583 2.62951 53.8474 2.66018 52.8475 2.42987C52.115 2.26133 51.3754 2.20766 50.6254 2.26521C49.6985 2.33639 48.7751 2.29884 47.8618 2.15955C47.1655 2.05369 46.4579 2.09753 45.7387 2.28764C44.7203 2.55612 43.6922 2.54714 42.6751 2.26517C41.9387 2.06106 41.2112 1.99767 40.4934 2.06285C39.6375 2.14052 38.7807 2.19927 37.9231 2.23764C37.0788 2.27537 36.2244 2.31188 35.3707 2.35053C34.4382 2.39258 33.5047 2.31966 32.5794 2.14226C31.8229 1.99764 31.0688 1.96638 30.316 2.03868C29.4066 2.12599 28.4966 2.12883 27.5873 2.05152C26.8504 1.9888 26.1083 2.04539 25.3608 2.23067C24.3735 2.47566 23.3783 2.51156 22.3867 2.32863C21.5818 2.18006 20.7798 2.08462 19.9811 2.04802C19.1882 2.01175 18.3865 2.04028 17.5784 2.12712C16.6832 2.22344 15.7888 2.27168 14.8999 2.26682C14.0114 2.26192 13.1209 2.20625 12.2321 2.10201C11.4412 2.00929 10.6528 1.98906 9.86561 2.04168C9.04986 2.09634 8.23191 2.18769 7.41665 2.3224C6.46834 2.47924 5.51017 2.49643 4.55409 2.36176C3.91208 2.27117 2.87822 2.38062 1.37963 2.82005C1.31336 2.83948 1.24383 2.85431 1.17498 2.85971L1.08101 2.8642C0.530937 2.90732 0.0472423 2.5003 0.00328731 1.95049C-0.0371924 1.43414 0.323232 0.990943 0.822194 0.900685C2.39812 0.438971 3.7646 0.227188 4.83538 0.378288C5.59123 0.484564 6.34174 0.471988 7.08784 0.348589C7.96708 0.203228 8.85143 0.102629 9.7331 0.0435538C10.6432 -0.0172198 11.5551 0.00997457 12.4666 0.116877C13.2814 0.212407 14.0954 0.261311 14.9082 0.265856C15.7201 0.270328 16.5386 0.229779 17.3594 0.14157C18.2664 0.0439723 19.1711 0.00902189 20.0675 0.0498273C20.9585 0.0905839 21.8534 0.199026 22.7456 0.363528C23.4516 0.493841 24.16 0.46727 24.8745 0.290369C25.8292 0.0534506 26.7973 -0.0255295 27.7596 0.0563631C28.5481 0.123249 29.3395 0.122212 30.1286 0.0464262C31.0738 -0.0440523 32.0203 -0.00245188 32.9616 0.177996C33.7353 0.326212 34.5107 0.38911 35.285 0.35406C36.1381 0.315441 36.9862 0.270795 37.8299 0.23309C38.6584 0.196067 39.4868 0.14593 40.3138 0.0708707C41.2817 -0.0170225 42.2526 0.07155 43.2124 0.337658C43.8887 0.524798 44.5549 0.531877 45.2287 0.35432C46.2042 0.0964307 47.1885 0.0355851 48.1662 0.18471C48.9269 0.300683 49.694 0.325662 50.4695 0.266253C51.422 0.193103 52.3688 0.26933 53.2995 0.483707C53.963 0.636281 54.6304 0.614957 55.3186 0.422293C56.2741 0.15463 57.2365 0.0647726 58.1972 0.148973C59.0166 0.220895 59.8394 0.273881 60.6619 0.306589C61.4794 0.339081 62.2948 0.346488 63.1079 0.330647C64.0151 0.312903 64.9241 0.394491 65.8275 0.575461C66.5547 0.721329 67.2804 0.742805 67.9983 0.644498C68.8704 0.525169 69.7457 0.460752 70.6238 0.456023C71.5228 0.451267 72.4204 0.534762 73.3044 0.699455C73.9869 0.826086 74.6772 0.808631 75.3856 0.648061C76.3197 0.436153 77.2532 0.371203 78.1756 0.449776C78.9937 0.519458 79.822 0.590077 80.6538 0.670406C81.4096 0.743189 82.1598 0.739327 82.9059 0.648515C83.7642 0.544035 84.6254 0.485198 85.4838 0.481806C86.3771 0.478483 87.2699 0.58262 88.1624 0.779891C88.8251 0.926531 89.4766 0.901189 90.1268 0.716542C91.1123 0.436414 92.1141 0.437598 93.1057 0.704743C93.8302 0.899735 94.5459 0.97707 95.2545 0.952802C95.9991 0.927205 96.7476 0.827204 97.4932 0.649008C98.3799 0.437336 99.278 0.334122 100.177 0.345354C101.069 0.35678 101.951 0.475858 102.823 0.68918C103.521 0.859903 104.218 0.915556 104.912 0.856951C105.744 0.786742 106.579 0.743977 107.418 0.742406C108.247 0.740925 109.074 0.764503 109.886 0.806331C110.676 0.846992 111.471 0.881523 112.266 0.914061C113.072 0.947041 113.881 0.989233 114.693 1.03907C115.409 1.08292 116.117 1.02932 116.817 0.879746C117.702 0.691035 118.596 0.638417 119.489 0.716353C120.21 0.779067 120.934 0.767121 121.664 0.676083C122.568 0.562903 123.469 0.588409 124.358 0.763639C125.065 0.903461 125.778 0.961445 126.486 0.932793C127.287 0.900425 128.09 0.882382 128.895 0.8852C129.661 0.887902 130.425 0.866713 131.18 0.809761C132 0.74802 132.819 0.73179 133.637 0.763827C134.417 0.794402 135.202 0.822844 135.987 0.854836C136.764 0.88654 137.54 0.91686 138.313 0.937209C139.066 0.957012 139.82 0.946335 140.566 0.90751C141.339 0.867231 142.115 0.824303 142.892 0.786608C143.69 0.747873 144.493 0.740314 145.293 0.754354C146.078 0.768157 146.857 0.784403 147.628 0.81358C148.448 0.844622 149.269 0.946248 150.088 1.11173C150.779 1.25146 151.47 1.31058 152.161 1.28676C152.887 1.26158 153.612 1.18123 154.335 1.05883C155.155 0.919707 155.978 0.854059 156.796 0.856744C157.597 0.859464 158.398 0.910046 159.199 1.01215C159.937 1.10633 160.678 1.18089 161.419 1.22366C162.175 1.2673 162.93 1.30026 163.675 1.32696C164.427 1.35392 165.179 1.37798 165.931 1.40685C166.653 1.43456 167.38 1.42923 168.105 1.39C168.887 1.34772 169.67 1.34107 170.451 1.36362C171.223 1.38589 171.991 1.42972 172.753 1.49201C173.402 1.54498 174.054 1.50457 174.711 1.37373C175.49 1.21852 176.272 1.10287 177.053 1.02668C177.861 0.947892 178.672 0.941886 179.477 1.01087C180.201 1.07283 180.922 1.11569 181.638 1.13429C182.359 1.153 183.081 1.15579 183.803 1.14059C184.548 1.12489 185.295 1.1117 186.04 1.11034C186.843 1.10888 187.644 1.18566 188.44 1.33601C189.066 1.45436 189.689 1.46465 190.307 1.37084C191.099 1.25064 191.894 1.21143 192.688 1.24407C193.401 1.27337 194.115 1.27797 194.829 1.27296C195.572 1.2677 196.316 1.28268 197.056 1.30489C197.817 1.32779 198.578 1.38887 199.332 1.48711C199.907 1.56203 200.488 1.50999 201.081 1.33013C202.007 1.04935 202.945 1.06711 203.862 1.38169C204.482 1.5947 205.095 1.69525 205.696 1.68896C206.371 1.68181 207.042 1.63161 207.711 1.53358C208.434 1.4273 209.162 1.329 209.886 1.24319C210.64 1.15387 211.395 1.11542 212.15 1.12008C212.857 1.12452 213.569 1.12027 214.277 1.10938C215.095 1.09713 215.905 1.21269 216.703 1.45327C217.286 1.62897 217.865 1.68485 218.433 1.62395C219.198 1.54209 219.967 1.53033 220.732 1.5881C221.38 1.63678 222.031 1.62465 222.68 1.56323C223.432 1.49218 224.185 1.48068 224.933 1.51792C225.549 1.54842 226.165 1.49603 226.783 1.37235C227.656 1.1975 228.532 1.25959 229.388 1.54275C229.912 1.71576 230.42 1.74191 230.933 1.6209C231.732 1.43237 232.535 1.36757 233.339 1.4403C234.015 1.50167 234.691 1.54343 235.36 1.56655C235.97 1.58759 236.586 1.54228 237.202 1.4207C238.008 1.26126 238.819 1.24481 239.627 1.38147C240.27 1.49067 240.917 1.55547 241.558 1.57494C242.288 1.59723 243.015 1.66851 243.74 1.78507C244.285 1.87273 244.827 1.8443 245.377 1.7023C246.145 1.50352 246.923 1.41965 247.7 1.44059C248.412 1.45989 249.125 1.51115 249.836 1.60221C250.496 1.68673 251.156 1.75049 251.815 1.79734C252.456 1.8429 253.094 1.85258 253.729 1.82603C254.372 1.79913 255.015 1.74411 255.658 1.6598C256.356 1.56823 257.055 1.5043 257.752 1.46814C258.423 1.43334 259.094 1.40116 259.765 1.36741C260.557 1.32752 261.347 1.4283 262.123 1.66978C262.598 1.81749 263.06 1.82531 263.529 1.6805C264.311 1.43975 265.103 1.34999 265.899 1.42044C266.53 1.47615 267.16 1.49997 267.789 1.49514C268.489 1.48973 269.189 1.52517 269.888 1.60073C270.485 1.66537 271.082 1.67246 271.677 1.62499C272.412 1.56612 273.149 1.59363 273.879 1.70294C274.45 1.78846 275.02 1.79843 275.59 1.74005C276.349 1.66204 277.107 1.70718 277.86 1.86733C278.334 1.96829 278.812 1.93854 279.301 1.77766C280.16 1.49655 281.034 1.50582 281.888 1.79888C282.429 1.984 282.957 2.05974 283.474 2.04266C284.012 2.02464 284.557 1.92087 285.112 1.72539C285.875 1.45639 286.653 1.34513 287.437 1.3934C288.109 1.43494 288.785 1.50017 289.455 1.59772C290.108 1.69294 290.762 1.79815 291.413 1.91722C291.942 2.01369 292.468 2.01932 292.992 1.93402C293.694 1.82003 294.397 1.77797 295.099 1.80538C295.712 1.82932 296.325 1.83373 296.936 1.81568C297.564 1.7971 298.197 1.76722 298.823 1.73396C299.511 1.6976 300.199 1.72069 300.885 1.79912C301.484 1.86775 302.083 1.90737 302.678 1.91735C303.338 1.9283 304.002 1.97134 304.66 2.04222C305.176 2.09769 305.697 2.06553 306.218 1.94888C306.982 1.77873 307.754 1.77088 308.518 1.92865C309.061 2.04076 309.601 2.08888 310.139 2.06422C310.79 2.03425 311.444 2.03139 312.093 2.05524C312.652 2.0756 313.211 2.03932 313.77 1.95825C314.378 1.86996 314.987 1.77274 315.594 1.66322C316.269 1.54128 316.948 1.47743 317.625 1.47717Z" fill="#4D4D4D"/>
</svg>
