<svg width="28" height="28" viewBox="0 0 28 28" fill="none" xmlns="http://www.w3.org/2000/svg">
<path d="M17.9561 14.9546L19.7138 24.8461C19.7334 24.9626 19.7171 25.0823 19.6669 25.1892C19.6167 25.2961 19.5351 25.3852 19.4329 25.4445C19.3307 25.5038 19.2129 25.5304 19.0952 25.521C18.9774 25.5115 18.8654 25.4662 18.774 25.3914L14.6207 22.274C14.4202 22.1242 14.1766 22.0433 13.9263 22.0433C13.676 22.0433 13.4325 22.1242 13.232 22.274L9.07164 25.3902C8.98036 25.465 8.86845 25.5101 8.75085 25.5196C8.63325 25.5291 8.51554 25.5025 8.41344 25.4434C8.31133 25.3843 8.22968 25.2954 8.17938 25.1887C8.12908 25.082 8.11252 24.9625 8.13191 24.8461L9.88839 14.9546" stroke="#F2D184" stroke-width="2.32031" stroke-linecap="round" stroke-linejoin="round"/>
<path d="M13.9219 16.2422C17.7663 16.2422 20.8828 13.1257 20.8828 9.28125C20.8828 5.43683 17.7663 2.32031 13.9219 2.32031C10.0775 2.32031 6.96094 5.43683 6.96094 9.28125C6.96094 13.1257 10.0775 16.2422 13.9219 16.2422Z" stroke="#F2D184" stroke-width="2.32031" stroke-linecap="round" stroke-linejoin="round"/>
</svg>
