<svg width="102" height="102" viewBox="0 0 102 102" fill="none" xmlns="http://www.w3.org/2000/svg">
<g clip-path="url(#clip0_114_314)">
<path fill-rule="evenodd" clip-rule="evenodd" d="M73.7509 45.5217C70.0483 31.9823 54.2589 24.6416 42.075 28.9926L41.9613 29.0337L41.8458 29.0666C29.1585 32.8365 22.7575 46.6661 26.2002 56.1613L26.2457 56.2847L26.2831 56.41C29.2372 66.3367 40.9172 71.2661 49.3766 67.9818L49.4906 67.9373L49.6059 67.899C58.5535 64.9736 62.3296 55.2635 59.9135 49.3746L59.8629 49.248L59.8172 49.1192C57.6632 42.7956 50.124 40.2444 45.3899 42.3853L45.2765 42.4372L45.1613 42.4809C39.9129 44.5118 38.7748 49.9945 39.9707 52.2751L40.0361 52.4005L40.095 52.5306C40.356 53.1252 40.7448 53.655 41.2338 54.0823C41.7227 54.5096 42.2998 54.824 42.924 55.003C43.1281 55.0642 43.3236 55.1101 43.5105 55.1407C42.936 54.6144 42.5092 53.9469 42.2726 53.2045C41.0125 49.2479 44.2462 46.8016 45.9907 46.169C48.2368 45.3556 50.9452 45.7687 53.0059 47.6817C55.3965 49.7384 55.8472 52.9378 55.4096 55.3549C54.9203 58.0559 53.2532 60.7189 50.3519 62.4197C47.3745 64.3257 43.5937 64.5242 40.3659 63.5585C37.0073 62.5548 33.7709 60.166 31.997 56.2947C28.1064 48.6672 32.4582 37.8969 41.8244 34.1976C51.1511 30.0658 64.2744 34.7641 68.2264 46.1108C72.715 57.2883 65.6854 71.9657 52.4953 76.3495C39.4474 81.3355 22.3182 74.1083 17.7613 59.0825C12.5057 44.3387 22.1839 25.6636 39.1857 20.542C55.955 14.6316 77.1382 24.353 82.3296 43.0414C88.4297 61.4073 76.0327 84.1359 55.1732 89.9734C54.0328 90.2924 52.8123 90.1453 51.7803 89.5644C50.7484 88.9835 49.9894 88.0165 49.6704 86.876C49.3515 85.7356 49.4986 84.5151 50.0795 83.4831C50.6604 82.4512 51.6274 81.6922 52.7678 81.3732C69.2068 76.7735 78.2398 58.8692 73.8272 45.7698L73.785 45.6467L73.7509 45.5217Z" fill="#FABDCB"/>
</g>
<defs>
<clipPath id="clip0_114_314">
<rect width="78.6965" height="78.6965" fill="white" transform="translate(73.3938 101.793) rotate(-158.847)"/>
</clipPath>
</defs>
</svg>
