<svg width="102" height="102" viewBox="0 0 102 102" fill="none" xmlns="http://www.w3.org/2000/svg">
<g clip-path="url(#clip0_111_141)">
<path d="M40.8649 81.1369C40.6262 81.3558 40.3309 81.5036 40.0126 81.5636C39.6943 81.6237 39.3655 81.5935 39.0634 81.4766C38.7613 81.3597 38.4979 81.1607 38.3029 80.9021C38.1079 80.6434 37.989 80.3354 37.9598 80.0128L36.4322 62.9707C36.3312 61.8488 35.9595 60.7682 35.349 59.8216C34.7386 58.875 33.9075 58.0907 32.9272 57.536L18.0237 49.1112C17.7411 48.952 17.5088 48.717 17.3529 48.4326C17.1969 48.1482 17.1237 47.8258 17.1415 47.502C17.1592 47.1782 17.2672 46.8658 17.4533 46.6001C17.6394 46.3345 17.896 46.1262 18.1943 45.9989L33.924 39.2943C34.9616 38.8516 35.8761 38.1634 36.5887 37.2889C37.3013 36.4144 37.7907 35.3798 38.0147 34.2742L41.3996 17.5121C41.4625 17.1924 41.614 16.8969 41.8368 16.6592C42.0596 16.4215 42.3447 16.2513 42.6596 16.1679C42.9746 16.0844 43.3066 16.0912 43.6178 16.1874C43.9291 16.2836 44.207 16.4653 44.42 16.7119L55.6692 29.6012C56.4106 30.4499 57.3471 31.1058 58.3981 31.5124C59.4491 31.9191 60.5832 32.0644 61.7028 31.9359L78.6949 29.9741C79.0179 29.9359 79.3452 29.9891 79.6394 30.1277C79.9337 30.2663 80.1832 30.4847 80.3594 30.758C80.5357 31.0313 80.6318 31.3487 80.6366 31.6739C80.6415 31.9991 80.555 32.3192 80.387 32.5977L71.6119 47.2707C71.0325 48.2393 70.6974 49.3344 70.6356 50.4614C70.5738 51.5884 70.7871 52.7136 71.257 53.7398L78.3784 69.2827C78.5152 69.5782 78.5662 69.906 78.5257 70.229C78.4852 70.552 78.3549 70.8571 78.1494 71.1096C77.944 71.3622 77.6717 71.5519 77.3637 71.6572C77.0557 71.7626 76.7243 71.7793 76.4073 71.7055L59.719 67.9027C58.6199 67.6514 57.4762 67.671 56.3863 67.9598C55.2965 68.2486 54.2931 68.7978 53.4626 69.5604L40.8649 81.1369Z" fill="#CCD3F0" stroke="#CCD3F0" stroke-width="2.05311" stroke-linecap="round" stroke-linejoin="round"/>
</g>
<defs>
<clipPath id="clip0_111_141">
<rect width="78.6965" height="78.6965" fill="white" transform="translate(73.3938 101.793) rotate(-158.847)"/>
</clipPath>
</defs>
</svg>
