<svg width="68" height="68" viewBox="0 0 68 68" fill="none" xmlns="http://www.w3.org/2000/svg">
<g clip-path="url(#clip0_182_538)">
<path d="M21.9684 21.8713C25.1694 18.6961 29.5007 16.9226 34.0093 16.9409C38.518 16.9592 42.8347 18.7678 46.0098 21.9688C49.185 25.1699 50.9585 29.5011 50.9402 34.0097C50.9219 38.5184 49.1133 42.8351 45.9123 46.0103C42.7113 49.1854 38.38 50.9589 33.8714 50.9406C29.3627 50.9223 25.046 49.1138 21.8709 45.9127C18.6957 42.7117 16.9222 38.3805 16.9405 33.8718C16.9588 29.3632 18.7674 25.0465 21.9684 21.8713ZM48.1398 19.8561C40.3608 12.0138 27.698 11.9624 19.8557 19.7414C12.0134 27.5203 11.962 40.1831 19.741 48.0254C27.5199 55.8677 40.1827 55.9191 48.025 48.1402C55.8673 40.3612 55.9187 27.6985 48.1398 19.8561ZM41.53 26.3927C41.7608 26.0908 41.8684 25.7125 41.8311 25.3343C41.7938 24.9561 41.6143 24.6062 41.3288 24.3552C41.0434 24.1043 40.6734 23.971 40.2935 23.9824C39.9137 23.9937 39.5522 24.1489 39.2823 24.4164L30.7627 32.8672L30.6277 33.0208C30.4075 33.3087 30.299 33.6666 30.3222 34.0284C30.3454 34.3901 30.4988 34.7312 30.7541 34.9885L36.388 40.6683L36.5416 40.8033C36.8435 41.0341 37.2218 41.1417 37.6 41.1043C37.9782 41.067 38.3281 40.8875 38.5791 40.6021C38.83 40.3167 38.9633 39.9466 38.9519 39.5668C38.9406 39.1869 38.7854 38.8255 38.5179 38.5556L33.9404 33.9408L41.395 26.5463L41.53 26.3927Z" fill="#FBF9EF"/>
</g>
<defs>
<clipPath id="clip0_182_538">
<rect width="48" height="48" fill="white" transform="translate(34.0785) rotate(45.2324)"/>
</clipPath>
</defs>
</svg>
