<svg width="65" height="65" viewBox="0 0 65 65" fill="none" xmlns="http://www.w3.org/2000/svg">
<g clip-path="url(#clip0_182_534)">
<path d="M10.8659 32.5978C10.2825 31.4663 10.1724 30.1494 10.5599 28.9368C10.9474 27.7241 11.8007 26.7151 12.9322 26.1317L38.5294 12.9322C39.6608 12.3488 40.9777 12.2387 42.1904 12.6262C43.403 13.0137 44.412 13.8671 44.9955 14.9985L52.6951 29.9302C53.2786 31.0617 53.3887 32.3786 53.0012 33.5912C52.6137 34.8038 51.7603 35.8129 50.6289 36.3963L25.0317 49.5957C23.9002 50.1792 22.5833 50.2893 21.3707 49.9018C20.1581 49.5143 19.149 48.6609 18.5656 47.5294L10.8659 32.5978ZM14.0322 28.2648C13.4664 28.5565 13.0398 29.061 12.846 29.6673C12.6523 30.2736 12.7073 30.9321 12.999 31.4978L20.6987 46.4295C20.9904 46.9952 21.4949 47.4219 22.1012 47.6157C22.7076 47.8094 23.366 47.7544 23.9317 47.4626L49.5289 34.2632C50.0946 33.9715 50.5213 33.467 50.7151 32.8607C50.9088 32.2543 50.8538 31.5959 50.5621 31.0302L42.8624 16.0985C42.5707 15.5327 42.0661 15.1061 41.4598 14.9123C40.8535 14.7186 40.1951 14.7736 39.6293 15.0653L14.0322 28.2648ZM28.8147 51.6954C28.6689 51.4126 28.6413 51.0833 28.7382 50.7802C28.8351 50.477 29.0484 50.2248 29.3313 50.0789L48.5292 40.1793C48.812 40.0335 49.1413 40.0059 49.4444 40.1028C49.7476 40.1997 49.9998 40.413 50.1457 40.6959C50.2916 40.9788 50.3191 41.308 50.2222 41.6112C50.1253 41.9143 49.912 42.1666 49.6291 42.3124L30.4312 52.212C30.1484 52.3579 29.8192 52.3854 29.516 52.2885C29.2128 52.1916 28.9606 51.9783 28.8147 51.6954Z" fill="#FBF9EF"/>
</g>
<defs>
<clipPath id="clip0_182_534">
<rect width="48" height="48" fill="white" transform="translate(0 21.9991) rotate(-27.2783)"/>
</clipPath>
</defs>
</svg>
